<svg viewBox="0 0 201 41" xmlns="http://www.w3.org/2000/svg" xmlns:xlink="http://www.w3.org/1999/xlink" width="201.000000" height="41.000000" fill="none" customFrame="#000000">
	<g id="logo">
		<path id="moneybroz" d="M54.6542 28C55.1049 28 55.3302 27.766 55.3302 27.298L55.3302 20.33C55.5035 19.6713 55.6249 19.2467 55.6942 19.056C56.0316 18.0437 56.537 17.3712 57.2102 17.0384C57.5399 16.8755 57.9099 16.794 58.3202 16.794C58.7188 16.794 59.0612 16.8807 59.3472 17.054C59.6332 17.2273 59.8498 17.431 59.9972 17.665C60.1445 17.899 60.2615 18.211 60.3482 18.601C60.4349 18.991 60.4869 19.3333 60.5042 19.628C60.5215 19.9227 60.5302 20.2953 60.5302 20.746L60.5302 27.298C60.5302 27.766 60.7555 28 61.2062 28L63.5462 28C64.0142 28 64.2482 27.766 64.2482 27.298L64.2482 20.278C64.3522 19.8967 64.4345 19.615 64.4952 19.433C64.5558 19.251 64.6512 18.9953 64.7812 18.666C64.9112 18.3367 65.0455 18.0853 65.1842 17.912C65.3229 17.7387 65.4919 17.5523 65.6912 17.353C65.8905 17.1537 66.1159 17.015 66.3672 16.937C66.6185 16.859 66.9002 16.82 67.2122 16.82C67.4722 16.82 67.7019 16.846 67.9012 16.898C68.1005 16.95 68.2695 17.015 68.4082 17.093C68.5469 17.171 68.6725 17.2923 68.7852 17.457C68.8979 17.6217 68.9889 17.756 69.0582 17.86C69.1275 17.964 69.1882 18.1373 69.2402 18.38L69.3572 18.926C69.3832 19.0473 69.4005 19.2553 69.4092 19.55C69.4179 19.8447 69.4222 20.0397 69.4222 20.135L69.4222 27.298C69.4222 27.766 69.6562 28 70.1242 28L72.4382 28C72.9062 28 73.1402 27.766 73.1402 27.298L73.1402 20.252C73.1402 19.2467 73.0709 18.38 72.9322 17.652C72.7935 16.924 72.5552 16.2523 72.2172 15.637C72.076 15.38 71.9069 15.1503 71.7098 14.9477C71.435 14.6652 71.1058 14.4357 70.7222 14.259C70.0635 13.9557 69.2489 13.804 68.2782 13.804L68.2782 13.778C67.7062 13.778 67.1429 13.8647 66.5882 14.038C66.0335 14.2113 65.4832 14.5017 64.9372 14.909C64.3912 15.3163 63.9188 15.832 63.5202 16.456C63.1155 15.5674 62.5678 14.9043 61.8773 14.4667C61.2074 14.0422 60.403 13.83 59.4642 13.83C58.6534 13.83 57.9108 13.9817 57.2366 14.2851L57.2358 14.2855C57.1896 14.3063 57.1437 14.3278 57.0982 14.35C56.718 14.5355 56.375 14.7631 56.0692 15.0329L56.0692 15.0329C55.8034 15.2674 55.5657 15.5338 55.3562 15.832L55.2782 14.766C55.2066 14.578 55.1026 14.4385 54.9662 14.3476C54.8386 14.2625 54.6826 14.22 54.4982 14.22L52.3142 14.22C52.0889 14.22 51.9198 14.2763 51.8072 14.389C51.6945 14.5017 51.6382 14.6707 51.6382 14.896L51.6382 27.298C51.6382 27.766 51.8635 28 52.3142 28L54.6542 28ZM83.3842 28.364C85.7068 28.364 87.5312 27.688 88.8572 26.336C90.1832 24.984 90.8462 23.242 90.8462 21.11C90.8462 18.978 90.1832 17.2317 88.8572 15.871C87.5312 14.5103 85.7068 13.83 83.3842 13.83C81.0788 13.83 79.2632 14.506 77.9372 15.858C76.6112 17.21 75.9482 18.9607 75.9482 21.11C75.9482 23.242 76.6112 24.984 77.9372 26.336C79.2632 27.688 81.0788 28.364 83.3842 28.364ZM80.7192 24.152C81.4039 24.9667 82.2965 25.374 83.3972 25.374C83.9995 25.374 84.5395 25.252 85.0173 25.0081C85.4125 24.8062 85.7652 24.5209 86.0752 24.152C86.7598 23.3373 87.1022 22.319 87.1022 21.097C87.1022 19.875 86.7555 18.8653 86.0622 18.068C85.7606 17.7045 85.4166 17.4221 85.0305 17.2208C84.5512 16.9709 84.0067 16.846 83.3972 16.846C82.2965 16.846 81.4039 17.249 80.7192 18.055C80.5768 18.2226 80.4492 18.3992 80.3365 18.5848C79.9069 19.2917 79.6922 20.1291 79.6922 21.097C79.6922 22.0554 79.9027 22.8885 80.3239 23.5963C80.4397 23.791 80.5715 23.9762 80.7192 24.152ZM96.8002 28C97.2509 28 97.4762 27.766 97.4762 27.298L97.4762 20.226C97.6842 19.1167 98.0915 18.2717 98.6982 17.691C99.3049 17.1103 100.059 16.82 100.96 16.82C101.432 16.82 101.836 16.9265 102.172 17.1396C103.011 17.6709 103.43 18.8643 103.43 20.72L103.43 27.298C103.43 27.766 103.664 28 104.132 28L106.472 28C106.923 28 107.148 27.766 107.148 27.298L107.148 20.252C107.148 18.1027 106.711 16.495 105.835 15.429C104.96 14.363 103.595 13.83 101.74 13.83C100.943 13.83 100.172 13.9947 99.4262 14.324C99.1491 14.4464 98.8863 14.5905 98.6379 14.756C98.2183 15.0358 97.8397 15.3771 97.5022 15.78L97.4242 14.766C97.2855 14.402 97.0168 14.22 96.6182 14.22L94.4602 14.22C94.0095 14.22 93.7842 14.4453 93.7842 14.896L93.7842 27.298C93.7842 27.766 94.0095 28 94.4602 28L96.8002 28ZM117.47 28.364C119.376 28.364 120.932 27.9044 122.137 26.9852C122.203 26.9349 122.268 26.8831 122.332 26.83C122.536 26.6975 122.638 26.5349 122.638 26.3424C122.638 26.2076 122.588 26.0582 122.488 25.894L121.786 24.568C121.578 24.2213 121.266 24.1347 120.85 24.308C120.018 24.984 118.978 25.322 117.73 25.322C116.604 25.322 115.711 25.0273 115.052 24.438C114.394 23.8487 113.96 23.0947 113.752 22.176L122.904 22.176C123.338 22.176 123.598 21.9853 123.684 21.604C123.771 21.1013 123.814 20.5987 123.814 20.096C123.814 18.5949 123.462 17.3399 122.757 16.3311C122.55 16.0352 122.313 15.7605 122.046 15.507C120.868 14.389 119.308 13.83 117.366 13.83C116.118 13.83 115.009 14.0337 114.038 14.441C113.068 14.8483 112.292 15.3987 111.711 16.092C111.131 16.7853 110.693 17.5567 110.398 18.406C110.12 19.2081 109.981 20.0567 109.981 20.9516C109.981 21.0042 109.981 21.057 109.982 21.11C109.982 22.6527 110.299 23.9743 110.931 25.075C111.564 26.1757 112.435 26.999 113.544 27.545C114.654 28.091 115.962 28.364 117.47 28.364ZM120.434 19.654L120.434 19.654C120.417 18.77 120.14 18.0637 119.602 17.535C119.065 17.0063 118.311 16.742 117.34 16.742C116.404 16.742 115.624 17.0193 115 17.574C114.376 18.1287 113.986 18.822 113.83 19.654L120.434 19.654ZM127.87 36.06C128.633 36.06 129.305 35.943 129.885 35.709C130.466 35.475 130.982 35.1023 131.432 34.591C131.883 34.0797 132.264 33.551 132.576 33.005C132.888 32.459 133.244 31.7353 133.642 30.834L140.272 15.026C140.326 14.8994 140.354 14.7858 140.354 14.6851C140.354 14.5928 140.331 14.5115 140.285 14.441C140.19 14.2937 140.012 14.22 139.752 14.22L137.178 14.22C136.797 14.22 136.537 14.402 136.398 14.766L132.628 24.698L128.858 14.766C128.72 14.402 128.46 14.22 128.078 14.22L125.53 14.22C125.27 14.22 125.093 14.2937 124.997 14.441C124.988 14.456 124.979 14.4714 124.971 14.4874C124.943 14.5465 124.929 14.6124 124.929 14.6851C124.929 14.7858 124.956 14.8994 125.01 15.026L130.756 28.234L129.846 30.47C129.586 31.0593 129.348 31.5273 129.131 31.874C128.915 32.2207 128.663 32.485 128.377 32.667C128.091 32.849 127.766 32.94 127.402 32.94C126.761 32.94 126.102 32.81 125.426 32.55C124.993 32.394 124.698 32.524 124.542 32.94L123.97 34.578C123.928 34.6962 123.906 34.804 123.906 34.9016C123.906 35.1617 124.058 35.3485 124.36 35.462C125.418 35.8607 126.588 36.06 127.87 36.06ZM149.814 28.364C150.606 28.364 151.355 28.2401 152.06 27.9923C152.158 27.9582 152.254 27.9218 152.349 27.883C153.138 27.5623 153.84 27.103 154.455 26.505C155.071 25.907 155.556 25.1313 155.911 24.178C156.267 23.2247 156.444 22.1587 156.444 20.98C156.444 18.7267 155.829 16.9717 154.598 15.715C153.368 14.4583 151.834 13.83 149.996 13.83C149.494 13.83 148.982 13.9037 148.462 14.051C147.942 14.1983 147.448 14.4107 146.98 14.688C146.512 14.9653 146.122 15.2947 145.81 15.676L145.81 9.176C145.81 8.95917 145.756 8.7945 145.648 8.68199C145.531 8.56066 145.351 8.5 145.108 8.5L142.768 8.5C142.543 8.5 142.374 8.55633 142.261 8.669C142.149 8.78167 142.092 8.95067 142.092 9.176L142.092 27.298C142.092 27.5408 142.153 27.7207 142.274 27.8375C142.387 27.9458 142.551 28 142.768 28L144.562 28C144.996 28 145.247 27.7833 145.316 27.35L145.342 26.362C145.828 26.9687 146.469 27.454 147.266 27.818C148.064 28.182 148.913 28.364 149.814 28.364ZM147.487 24.867C148.033 25.1703 148.61 25.322 149.216 25.322C150.204 25.322 151.023 24.971 151.673 24.269C152.323 23.567 152.648 22.5053 152.648 21.084C152.648 20.2347 152.505 19.4893 152.219 18.848C151.945 18.234 151.572 17.763 151.1 17.435C151.079 17.4204 151.058 17.406 151.036 17.392C150.534 17.0627 149.962 16.898 149.32 16.898C148.909 16.898 148.521 16.9621 148.154 17.0902C147.918 17.1728 147.692 17.2821 147.474 17.418C146.92 17.7647 146.491 18.211 146.187 18.757C145.884 19.303 145.732 19.8793 145.732 20.486L145.732 22.202C145.732 22.7047 145.888 23.1987 146.2 23.684C146.512 24.1693 146.941 24.5637 147.487 24.867ZM162.034 28C162.502 28 162.736 27.766 162.736 27.298L162.736 21.292C162.736 21.0044 162.763 20.7221 162.817 20.4452C162.91 19.9709 163.082 19.5122 163.334 19.069C163.733 18.367 164.275 17.8037 164.959 17.379C165.644 16.9543 166.368 16.742 167.13 16.742C167.529 16.742 167.884 16.794 168.196 16.898C168.578 16.9847 168.812 16.8113 168.898 16.378L169.158 14.896C169.173 14.8183 169.181 14.7457 169.181 14.6783C169.181 14.3549 169.008 14.1501 168.664 14.064C168.179 13.908 167.65 13.83 167.078 13.83C166.16 13.83 165.293 14.064 164.478 14.532C163.664 15 162.996 15.6847 162.476 16.586L162.32 14.792C162.216 14.4107 161.956 14.22 161.54 14.22L159.72 14.22C159.477 14.22 159.298 14.2807 159.181 14.402C159.072 14.5145 159.018 14.6792 159.018 14.896L159.018 27.298C159.018 27.766 159.252 28 159.72 28L162.034 28ZM178.362 28.364C180.685 28.364 182.509 27.688 183.835 26.336C185.161 24.984 185.824 23.242 185.824 21.11C185.824 18.978 185.161 17.2317 183.835 15.871C182.509 14.5103 180.685 13.83 178.362 13.83C176.057 13.83 174.241 14.506 172.915 15.858C171.589 17.21 170.926 18.9607 170.926 21.11C170.926 23.242 171.589 24.984 172.915 26.336C174.241 27.688 176.057 28.364 178.362 28.364ZM175.697 24.152C176.382 24.9667 177.275 25.374 178.375 25.374C179.476 25.374 180.369 24.9667 181.053 24.152C181.738 23.3373 182.08 22.319 182.08 21.097C182.08 19.875 181.734 18.8653 181.04 18.068C180.364 17.2533 179.476 16.846 178.375 16.846C177.275 16.846 176.382 17.249 175.697 18.055C175.013 18.861 174.67 19.875 174.67 21.097C174.67 22.319 175.013 23.3373 175.697 24.152ZM200.254 28C200.722 28 200.956 27.766 200.956 27.298L200.956 25.816C200.956 25.348 200.722 25.114 200.254 25.114L193 25.114L200.592 16.56C200.818 16.3173 200.93 16.0313 200.93 15.702L200.93 14.896C200.93 14.4453 200.705 14.22 200.254 14.22L188.762 14.22C188.294 14.22 188.06 14.4453 188.06 14.896L188.06 16.43C188.06 16.898 188.294 17.132 188.762 17.132L195.86 17.132L188.294 25.634C188.069 25.8767 187.956 26.1627 187.956 26.492L187.956 27.298C187.956 27.766 188.19 28 188.658 28L200.254 28Z" fill="rgb(48,51,53)" fill-rule="evenodd" />
		<path id="logo_icon" d="M41 5C41 2.23858 38.7614 0 36 0C33.2386 0 31 2.23858 31 5C31 7.76142 33.2386 10 36 10C38.7614 10 41 7.76142 41 5ZM12 1L27.9355 1C27.3367 2.20496 27 3.56316 27 5C27 9.97056 31.0294 14 36 14C37.4368 14 38.795 13.6633 40 13.0645L40 29C40 35.6274 34.6274 41 28 41L12 41C5.37258 41 0 35.6274 0 29L0 13C0 6.37258 5.37258 1 12 1ZM14.38 26.42C14.38 26.8067 14.1867 27 13.8 27L11.8 27C11.6067 27 11.4617 26.9517 11.365 26.855C11.2683 26.7583 11.22 26.6133 11.22 26.42L11.22 16.96C11.22 16.7799 11.265 16.6432 11.355 16.55C11.4516 16.45 11.5999 16.4 11.8 16.4L13.66 16.4C13.98 16.4 14.2 16.5467 14.32 16.84L14.38 17.5C14.7 17.0467 15.13 16.7 15.67 16.46C16.21 16.22 16.8 16.1 17.44 16.1C18.2298 16.1 18.8981 16.2823 19.4449 16.6468C19.9227 16.9653 20.3078 17.4231 20.6 18.02C21.0267 17.3533 21.56 16.8633 22.2 16.55C22.84 16.2367 23.5067 16.08 24.2 16.08C24.96 16.08 25.5967 16.1967 26.11 16.43C26.4412 16.5805 26.7224 16.7783 26.9537 17.0232C27.0809 17.1578 27.193 17.3068 27.29 17.47C27.5633 17.93 27.7567 18.4467 27.87 19.02C27.9833 19.5933 28.04 20.2733 28.04 21.06L28.04 26.42C28.04 26.8067 27.8467 27 27.46 27L25.46 27C25.2667 27 25.1217 26.9517 25.025 26.855C24.9283 26.7583 24.88 26.6133 24.88 26.42L24.88 20.91C24.88 20.7967 24.87 20.6133 24.85 20.36C24.83 20.1067 24.8 19.9233 24.76 19.81C24.72 19.6967 24.6633 19.5467 24.59 19.36C24.5167 19.1733 24.4233 19.0367 24.31 18.95C24.1967 18.8633 24.0533 18.7867 23.88 18.72C23.7067 18.6533 23.5067 18.62 23.28 18.62C23 18.62 22.75 18.6733 22.53 18.78C22.31 18.8867 22.1367 19.0067 22.01 19.14C21.8833 19.2733 21.7667 19.4667 21.66 19.72C21.5533 19.9733 21.4767 20.18 21.43 20.34C21.3833 20.5 21.3267 20.7267 21.26 21.02C21.2333 21.1133 21.2133 21.18 21.2 21.22L21.2 26.42C21.2 26.8067 21.0067 27 20.62 27L18.62 27C18.4267 27 18.2817 26.9517 18.185 26.855C18.0883 26.7583 18.04 26.6133 18.04 26.42L18.04 21.48C18.04 21.1467 18.0367 20.8767 18.03 20.67C18.0233 20.4633 17.99 20.2167 17.93 19.93C17.87 19.6433 17.7867 19.4133 17.68 19.24C17.5733 19.0667 17.4133 18.92 17.2 18.8C16.9867 18.68 16.7333 18.62 16.44 18.62C16.1467 18.62 15.8833 18.6767 15.65 18.79C15.4167 18.9033 15.2367 19.03 15.11 19.17C14.9833 19.31 14.8667 19.51 14.76 19.77C14.6533 20.03 14.5833 20.2367 14.55 20.39C14.5167 20.5433 14.4733 20.76 14.42 21.04C14.4067 21.1333 14.3933 21.2067 14.38 21.26L14.38 26.42Z" fill="rgb(138,206,23)" fill-rule="evenodd" />
		<path id="logo_icon" d="M36 0C38.7614 0 41 2.23858 41 5C41 7.76142 38.7614 10 36 10C33.2386 10 31 7.76142 31 5C31 2.23858 33.2386 0 36 0ZM9.56045 2.26953Q10.7497 2 12 2L26.4556 2Q26.3657 2.28457 26.2936 2.57353Q26 3.75013 26 5Q26 6.1151 26.2364 7.17762Q26.4311 8.05303 26.7863 8.89276Q27.1447 9.74024 27.6424 10.496Q28.1987 11.3408 28.9289 12.0711Q29.6592 12.8013 30.5039 13.3576Q31.2597 13.8553 32.1072 14.2137Q32.947 14.5689 33.8225 14.7637Q34.885 15 36 15Q37.2499 15 38.4266 14.7063Q38.7155 14.6342 39 14.5444L39 29Q39 30.2504 38.7305 31.4396Q38.5174 32.3796 38.136 33.2814Q37.7466 34.202 37.2075 35.0245Q36.5908 35.9655 35.7782 36.7782Q34.9656 37.5907 34.0247 38.2074Q33.2021 38.7466 32.2814 39.136Q31.3796 39.5174 30.4396 39.7305Q29.2503 40 28 40L12 40Q10.7496 40 9.56039 39.7305Q8.62042 39.5174 7.71861 39.136Q6.79805 38.7466 5.97557 38.2076Q5.0345 37.5908 4.22183 36.7782Q3.40901 35.9654 2.79219 35.0241Q2.25331 34.2018 1.86402 33.2814Q1.48257 32.3795 1.26953 31.4395Q1 30.2503 1 29L1 13Q1 11.7497 1.26954 10.5604Q1.48258 9.62044 1.86402 8.71861Q2.25337 7.7981 2.79235 6.97566Q3.40912 6.03453 4.22183 5.22183Q5.03455 4.4091 5.97568 3.79234Q6.79811 3.25336 7.71861 2.86402Q8.62045 2.48258 9.56045 2.26953ZM39 13.4879C38.0617 13.8195 37.0519 14 36 14C31.0294 14 27 9.97056 27 5C27 3.94809 27.1805 2.93834 27.5121 2C27.6335 1.65662 27.7751 1.32281 27.9355 1L12 1C5.37258 1 0 6.37258 0 13L0 29C0 35.6274 5.37258 41 12 41L28 41C34.6274 41 40 35.6274 40 29L40 13.0645C39.6772 13.2249 39.3434 13.3665 39 13.4879ZM39.7071 3.46446Q40 4.17157 40 5Q40 5.82842 39.7071 6.53553Q39.4142 7.24264 38.8284 7.82843Q38.2426 8.41422 37.5355 8.70711Q36.8284 9 36 9Q35.1716 9 34.4645 8.70711Q33.7574 8.41422 33.1716 7.82843Q32.5858 7.24264 32.2929 6.53553Q32 5.82843 32 5Q32 4.17157 32.2929 3.46446Q32.5858 2.75736 33.1716 2.17157Q33.7574 1.58578 34.4645 1.29289Q35.1716 1 36 1Q36.8284 1 37.5355 1.29289Q38.2426 1.58578 38.8284 2.17157Q39.4142 2.75736 39.7071 3.46446ZM15.1568 27.2898Q15.38 26.9228 15.38 26.42L15.38 21.3644Q15.3938 21.2914 15.4064 21.2057Q15.4812 20.814 15.5272 20.6024Q15.5585 20.4583 15.6852 20.1496Q15.7788 19.9213 15.8515 19.8409Q15.9114 19.7748 16.0869 19.6895Q16.23 19.62 16.44 19.62Q16.618 19.62 16.7097 19.6716Q16.8041 19.7246 16.8283 19.7641Q16.8969 19.8756 16.9512 20.1349Q17.0233 20.4795 17.0305 20.7022Q17.04 20.9961 17.04 21.48L17.04 26.42Q17.04 26.9228 17.2632 27.2898Q17.3527 27.4369 17.4779 27.5621Q17.6031 27.6873 17.7502 27.7768Q18.1172 28 18.62 28L20.62 28Q21.1228 28 21.4898 27.7768Q21.6369 27.6874 21.7621 27.5621Q21.8874 27.4369 21.9768 27.2898Q22.2 26.9228 22.2 26.42L22.2 21.3692Q22.2102 21.3344 22.2215 21.2947L22.2291 21.2684L22.2351 21.2416Q22.3285 20.831 22.39 20.62Q22.4439 20.4351 22.5816 20.1081Q22.6708 19.8964 22.735 19.8288Q22.7998 19.7605 22.9663 19.6798Q23.0896 19.62 23.28 19.62Q23.4343 19.62 23.521 19.6533Q23.6023 19.6846 23.6544 19.7135Q23.6567 19.7192 23.6593 19.7257Q23.7628 19.9893 23.817 20.1428Q23.8334 20.1893 23.8531 20.4387Q23.88 20.7794 23.88 20.91L23.88 26.42Q23.88 26.9228 24.1032 27.2898Q24.1927 27.4369 24.3179 27.5621Q24.4431 27.6873 24.5902 27.7768Q24.9572 28 25.46 28L27.46 28Q27.9628 28 28.3298 27.7768Q28.4769 27.6874 28.6021 27.5621Q28.7274 27.4369 28.8168 27.2898Q29.04 26.9228 29.04 26.42L29.04 21.06Q29.04 19.7821 28.851 18.8261Q28.6476 17.7972 28.1497 16.9592Q27.9756 16.6662 27.7534 16.4158Q27.7177 16.3756 27.6807 16.3365Q27.6184 16.2705 27.5528 16.2079Q27.1117 15.7869 26.5238 15.5196Q25.5566 15.08 24.2 15.08Q23.704 15.08 23.2237 15.167Q22.4727 15.3031 21.7603 15.6519Q21.4968 15.7808 21.2533 15.9402Q20.95 16.1386 20.6776 16.3842Q20.4485 16.1446 20.1872 15.9478Q20.0954 15.8786 19.9996 15.8147Q19.8968 15.7462 19.7902 15.6842Q18.7848 15.1 17.44 15.1Q16.4231 15.1 15.5329 15.4358Q15.3969 15.4871 15.2639 15.5462Q15.0164 15.6562 14.7919 15.7897Q14.7183 15.7236 14.6372 15.6688Q14.2394 15.4 13.66 15.4L11.8 15.4Q11.2814 15.4 10.9087 15.6332Q10.7606 15.7259 10.6356 15.8554Q10.5142 15.9812 10.4282 16.1278Q10.22 16.4828 10.22 16.96L10.22 26.42Q10.22 26.9228 10.4432 27.2898Q10.5326 27.4369 10.6579 27.5621Q10.7831 27.6874 10.9302 27.7768Q11.2972 28 11.8 28L13.8 28Q14.3028 28 14.6698 27.7768Q14.8169 27.6874 14.9421 27.5621Q15.0674 27.4369 15.1568 27.2898ZM15.3066 16.6474C14.9335 16.8693 14.6246 17.1535 14.38 17.5L14.32 16.84C14.241 16.6469 14.1187 16.5174 13.953 16.4514C13.867 16.4171 13.7694 16.4 13.66 16.4L11.8 16.4C11.5999 16.4 11.4516 16.45 11.355 16.55C11.265 16.6432 11.22 16.7799 11.22 16.96L11.22 26.42C11.22 26.6133 11.2683 26.7583 11.365 26.855C11.4617 26.9517 11.6067 27 11.8 27L13.8 27Q14.09 27 14.235 26.855Q14.38 26.71 14.38 26.42L14.38 21.26C14.3933 21.2067 14.4067 21.1333 14.42 21.04C14.4733 20.76 14.5167 20.5433 14.55 20.39C14.5833 20.2367 14.6533 20.03 14.76 19.77C14.8667 19.51 14.9833 19.31 15.11 19.17C15.2367 19.03 15.4167 18.9033 15.65 18.79C15.8833 18.6767 16.1467 18.62 16.44 18.62C16.7333 18.62 16.9867 18.68 17.2 18.8C17.4133 18.92 17.5733 19.0667 17.68 19.24C17.7867 19.4133 17.87 19.6433 17.93 19.93C17.99 20.2167 18.0233 20.4633 18.03 20.67C18.0367 20.8767 18.04 21.1467 18.04 21.48L18.04 26.42Q18.04 26.71 18.185 26.855C18.2817 26.9517 18.4267 27 18.62 27L20.62 27C21.0067 27 21.2 26.8067 21.2 26.42L21.2 21.22C21.2133 21.18 21.2333 21.1133 21.26 21.02C21.3267 20.7267 21.3833 20.5 21.43 20.34C21.4767 20.18 21.5533 19.9733 21.66 19.72C21.7667 19.4667 21.8833 19.2733 22.01 19.14C22.1367 19.0067 22.31 18.8867 22.53 18.78C22.75 18.6733 23 18.62 23.28 18.62C23.5067 18.62 23.7067 18.6533 23.88 18.72C24.0533 18.7867 24.1967 18.8633 24.31 18.95C24.4233 19.0367 24.5167 19.1733 24.59 19.36C24.6633 19.5467 24.72 19.6967 24.76 19.81C24.8 19.9233 24.83 20.1067 24.85 20.36C24.87 20.6133 24.88 20.7967 24.88 20.91L24.88 26.42Q24.88 26.71 25.025 26.855C25.1217 26.9517 25.2667 27 25.46 27L27.46 27C27.8467 27 28.04 26.8067 28.04 26.42L28.04 21.06Q28.04 19.88 27.87 19.02C27.7567 18.4467 27.5633 17.93 27.29 17.47C27.193 17.3068 27.0809 17.1578 26.9537 17.0232C26.7224 16.7783 26.4412 16.5805 26.11 16.43C25.5967 16.1967 24.96 16.08 24.2 16.08C23.5067 16.08 22.84 16.2367 22.2 16.55C21.8656 16.7137 21.5604 16.9256 21.2843 17.1857C21.0319 17.4235 20.8038 17.7016 20.6 18.02C20.4317 17.6762 20.2326 17.3785 20.0027 17.1271C19.8334 16.942 19.6475 16.7819 19.4449 16.6468C18.8981 16.2823 18.2298 16.1 17.44 16.1Q16.5311 16.1 15.7567 16.4227Q15.7131 16.4408 15.67 16.46C15.5428 16.5165 15.4216 16.579 15.3066 16.6474Z" fill="rgb(151,151,151)" fill-opacity="0" fill-rule="evenodd" />
	</g>
</svg>
