<svg viewBox="0 0 50 50" xmlns="http://www.w3.org/2000/svg" xmlns:xlink="http://www.w3.org/1999/xlink" width="50.000000" height="50.000000" fill="none" customFrame="#000000">
	<g id="Группа 2">
		<circle id="Oval" cx="25" cy="25" r="25" fill="rgb(138,206,23)" />
		<circle id="Oval" cx="25" cy="25" r="24.5" stroke="rgb(151,151,151)" stroke-opacity="0" stroke-width="1.000000" />
		<g id="icon_shield">
			<path id="Combined Shape" d="M24.4549 40.089C24.5313 40.1084 24.61 40.1193 24.6876 40.1193C24.7652 40.1193 24.844 40.1084 24.9203 40.089C25.0391 40.0575 36.8088 36.82 36.8088 25.786L36.8088 16.0878C36.8088 15.7072 36.5725 15.3666 36.2161 15.2345L25.004 11.0842C24.8003 11.009 24.5761 11.009 24.3725 11.0842L13.1603 15.2345C12.8028 15.3666 12.5664 15.7072 12.5664 16.0866L12.5664 25.7848C12.5664 36.8187 24.3361 40.0575 24.4549 40.089ZM14.3846 16.7206L14.3846 25.786C14.3846 34.6321 23.1506 37.78 24.6913 38.2636C26.2913 37.7763 34.9906 34.7121 34.9906 25.786L34.9906 16.7206L24.6876 12.906L14.3846 16.7206ZM21.3732 23.5379L21.6763 23.5379L21.6763 21.7197C21.6763 20.0482 23.035 18.6894 24.7066 18.6894C26.3781 18.6894 27.7369 20.0482 27.7369 21.7197L27.7369 23.5379L28.0399 23.5379C29.2096 23.5379 30.1611 24.4894 30.1611 25.6591L30.1611 29.9015C30.1611 31.0712 29.2096 32.0228 28.0399 32.0228L21.3732 32.0228C20.2035 32.0228 19.252 31.0712 19.252 29.9015L19.252 25.6591C19.252 24.4894 20.2035 23.5379 21.3732 23.5379ZM25.9187 23.5379L23.4944 23.5379L23.4944 21.7197C23.4944 21.0506 24.0375 20.5076 24.7066 20.5076C25.3756 20.5076 25.9187 21.0506 25.9187 21.7197L25.9187 23.5379ZM21.3732 25.3561L28.0399 25.3561C28.2072 25.3561 28.3429 25.4918 28.3429 25.6591L28.3429 29.9015C28.3429 30.0688 28.2072 30.2046 28.0399 30.2046L21.3732 30.2046C21.206 30.2046 21.0702 30.0688 21.0702 29.9015L21.0702 25.6591C21.0702 25.4918 21.206 25.3561 21.3732 25.3561Z" fill="rgb(255,255,255)" fill-rule="evenodd" />
		</g>
	</g>
</svg>
