<svg viewBox="0 0 50 50" xmlns="http://www.w3.org/2000/svg" xmlns:xlink="http://www.w3.org/1999/xlink" width="50.000000" height="50.000000" fill="none" customFrame="#000000">
	<g id="Группа 1">
		<circle id="Oval" cx="25" cy="25" r="25" fill="rgb(138,206,23)" />
		<circle id="Oval" cx="25" cy="25" r="24.5" stroke="rgb(151,151,151)" stroke-opacity="0" stroke-width="1.000000" />
		<g id="icon_clock">
			<path id="Oval" d="M11.647 25.9999C11.647 18.6253 17.6253 12.647 24.9999 12.647C32.3745 12.647 38.3529 18.6253 38.3529 25.9999C38.3529 33.3745 32.3745 39.3529 24.9999 39.3529C17.6253 39.3529 11.647 33.3745 11.647 25.9999ZM36.3529 25.9999C36.3529 19.7299 31.27 14.647 24.9999 14.647C18.7299 14.647 13.647 19.7299 13.647 25.9999C13.647 32.27 18.7299 37.3529 24.9999 37.3529C31.27 37.3529 36.3529 32.27 36.3529 25.9999Z" fill="rgb(255,255,255)" fill-rule="evenodd" />
			<path id="Line 8" d="M25.5817 18.8834C25.5239 18.386 25.1012 18 24.5884 18C24.0361 18 23.5884 18.4477 23.5884 19L23.5884 26.0024L28.774 31.1881L28.8682 31.2713C29.2605 31.5763 29.8278 31.5486 30.1882 31.1881L30.2714 31.0939C30.5765 30.7016 30.5487 30.1344 30.1882 29.7739L25.5881 25.174L25.5884 19L25.5817 18.8834Z" fill="rgb(255,255,255)" fill-rule="evenodd" />
			<path id="Line 9" d="M32.3271 12.4117L33.6471 11.0918L39.9082 17.3529L38.5883 18.6728L32.3271 12.4117Z" fill="rgb(255,255,255)" fill-rule="evenodd" />
			<path id="Line 9 Copy" d="M0 1.41421L1.41421 0L7.7696 6.35539L6.35539 7.7696L0 1.41421Z" fill="rgb(255,255,255)" fill-rule="evenodd" transform="matrix(-1,0,0,1,17.7671,10.9976)" />
		</g>
	</g>
</svg>
