<?xml version="1.0" encoding="UTF-8"?>
<svg width="846px" height="979px" viewBox="0 0 846 979" version="1.1" xmlns="http://www.w3.org/2000/svg" xmlns:xlink="http://www.w3.org/1999/xlink">
    <title>bg_left</title>
    <g id="Page-1" stroke="none" stroke-width="1" fill="none" fill-rule="evenodd">
        <g id="Money_broz_Step1_768" transform="translate(475.000000, -210.000000)">
            <g id="bg_left" transform="translate(-475.000000, 210.000000)">
                <path d="M106.889739,129.48751 C54.1624078,155.657767 113.533613,281.929245 199.903976,302.798051 C286.274339,323.666857 402.256186,373.698503 385.932451,445.141471 C369.608715,516.584439 419.361511,557.732309 480.722867,573.565506 C523.915273,584.710532 669.914745,445.358392 551.915705,355.948386 C484.871877,305.148064 542.186994,223.828378 466.309742,147.628285 C390.43249,71.4281918 159.61707,103.317253 106.889739,129.48751 Z" id="Line-3-Copy-2" fill="#F4FFE2" transform="translate(342.000000, 337.097542) rotate(32.000000) translate(-342.000000, -337.097542) "></path>
                <circle id="Oval-Copy-7" fill="#EBFFC6" cx="499.085435" cy="566.268453" r="8"></circle>
                <path d="M692.436321,939.870609 C726.052647,918.553095 749.213226,893.238161 761.918057,863.925806 C794.368593,789.056525 756.847569,716.980651 684.765087,702.428496 C600.768765,685.471152 560.439162,611.742137 607.204392,534.114475 C653.969621,456.486813 653.969621,317.939839 562.143741,288.44225 C470.317861,258.944661 417.650744,348.662455 391.975342,382.439127 C370.400682,410.821164 333.549331,512.571205 281.421289,687.68925" id="Line-3-Copy-7" stroke="#7DC300" opacity="0.2" stroke-linecap="square" transform="translate(527.556068, 611.225754) rotate(-10.000000) translate(-527.556068, -611.225754) "></path>
                <path d="M763.741925,929.202055 C782.691947,909.830051 795.557997,888.460627 802.340075,865.093785 C816.528998,816.207539 796.888601,774.768029 741.688971,778.71189 C651.21891,785.175726 497.851571,738.038256 539.757098,617.913704 C581.662625,497.789153 539.757098,421.797387 402.898834,462.337862 C334.831766,482.500847 336.670677,528.717016 312.85442,563.773532 C292.841972,593.231003 301.071727,664.241379 337.543685,776.804659" id="Line-3-Copy-8" stroke="#7DC300" opacity="0.2" stroke-linecap="square" transform="translate(554.503225, 690.273212) rotate(-10.000000) translate(-554.503225, -690.273212) "></path>
            </g>
        </g>
    </g>
</svg>