<?xml version="1.0" encoding="UTF-8"?>
<svg width="756px" height="876px" viewBox="0 0 756 876" version="1.1" xmlns="http://www.w3.org/2000/svg" xmlns:xlink="http://www.w3.org/1999/xlink">
    <title>bg_right</title>
    <g id="Page-1" stroke="none" stroke-width="1" fill="none" fill-rule="evenodd">
        <g id="Money_broz_Step1_768" transform="translate(-236.000000, 302.000000)">
            <g id="bg_right" transform="translate(236.000000, -301.000000)">
                <path d="M425.93929,561.89967 C383.384915,621.608238 408.803397,687.401077 482.015764,717.948411 C555.228132,748.495744 631.797621,709.7614 621.948178,752.818801 C612.098735,795.876202 657.308586,826.11189 688.504068,804.938726 C709.301057,790.823284 702.63088,713.819169 668.493537,573.926382 C535.160289,526.102862 454.308873,522.093958 425.93929,561.89967 Z" id="Line-3-Copy" fill="#F4FFE2" transform="translate(552.802948, 673.319693) rotate(41.000000) translate(-552.802948, -673.319693) "></path>
                <path d="M80.8060885,89.2587845 C-17.8888904,193.883257 101.738624,345.308426 206.656422,339.811177 C311.57422,334.313928 384.984787,310.383388 384.984787,411.547348 C384.984787,512.711308 465.169157,542.558489 511.917691,510.812895 C543.08338,489.649165 566.764508,374.751998 582.961074,166.121393 C313.987736,45.1300055 146.602741,19.5091361 80.8060885,89.2587845 Z" id="Line-3-Copy-5" stroke="#7DC300" opacity="0.2" stroke-linecap="square" transform="translate(313.480537, 286.961437) rotate(-12.000000) translate(-313.480537, -286.961437) "></path>
                <circle id="Oval" fill="#EBFFC6" cx="455.29187" cy="576.776962" r="8"></circle>
                <path d="M135.012095,137.128716 C59.2197224,213.936019 140.618283,340.33578 241.990133,330.366291 C343.361983,320.396803 394.422823,333.969568 394.422823,435.108749 C394.422823,536.247931 468.019891,563.96415 537.055084,532.4661 C583.078545,511.467401 600.853251,352.237688 590.379201,54.7769618 C337.329378,58.4732621 185.540343,85.9238467 135.012095,137.128716 Z" id="Line-3" stroke="#7DC300" opacity="0.2" stroke-linecap="square"></path>
            </g>
        </g>
    </g>
</svg>