<svg width="104" height="57" viewBox="0 0 104 57" fill="none" xmlns="http://www.w3.org/2000/svg">
<g clip-path="url(#clip0_9706_79)">
<path fill-rule="evenodd" clip-rule="evenodd" d="M34.5236 0.412695C15.8063 -2.36919 8.20763 11.7352 12.3914 19.4449C16.5753 27.1547 18.1934 33.8964 11.5579 37.2885C4.92231 40.6806 4.79161 52.9024 17.5569 55.4379C30.3222 57.9734 32.3256 51.7768 47.1025 49.5301C61.8793 47.2835 69.9478 60.8881 80.9078 55.2751C90.713 50.2535 85.3629 36.7741 88.8017 32.4139C97.2261 21.7325 97.577 14.1542 92.6961 7.60892C88.7451 2.31053 78.7444 0.603914 59.8375 5.44063C48.6643 8.29894 37.8345 0.90478 34.5236 0.412695Z" fill="#F4FFE1"/>
<path d="M10.3263 54.062C11.1455 53.9904 11.7542 53.2998 11.686 52.5196C11.6177 51.7394 10.8983 51.1651 10.0791 51.2367C9.25991 51.3084 8.65116 51.999 8.71941 52.7791C8.78767 53.5593 9.50709 54.1337 10.3263 54.062Z" fill="#D9F8A8"/>
<path d="M42.4603 2.46987C43.0105 2.42174 43.4175 1.9367 43.3693 1.38652C43.3212 0.836336 42.8362 0.429346 42.286 0.47748C41.7358 0.525615 41.3288 1.01065 41.377 1.56083C41.4251 2.11101 41.9101 2.518 42.4603 2.46987Z" fill="#D9F8A8"/>
<path d="M94.5935 12.9194C95.4127 12.8478 96.0214 12.1572 95.9532 11.377C95.8849 10.5969 95.1655 10.0225 94.3463 10.0942C93.5271 10.1658 92.9184 10.8564 92.9866 11.6366C93.0549 12.4168 93.7743 12.9911 94.5935 12.9194Z" fill="#D9F8A8"/>
<path d="M17.381 6.44502C18.2001 6.37335 18.8089 5.68279 18.7406 4.90261C18.6724 4.12243 17.953 3.54807 17.1338 3.61974C16.3146 3.69141 15.7058 4.38197 15.7741 5.16215C15.8424 5.94233 16.5618 6.51669 17.381 6.44502Z" stroke="#303335" stroke-width="0.5" stroke-linecap="square"/>
<path d="M85.6784 51.8483C86.2635 51.7971 86.6984 51.3039 86.6496 50.7466C86.6009 50.1893 86.087 49.7791 85.5019 49.8303C84.9167 49.8815 84.4819 50.3747 84.5307 50.932C84.5794 51.4893 85.0933 51.8995 85.6784 51.8483Z" stroke="#303335" stroke-width="0.5" stroke-linecap="square"/>
<path d="M101.857 33.2481C102.442 33.1969 102.877 32.7037 102.828 32.1464C102.779 31.5891 102.265 31.1789 101.68 31.2301C101.095 31.2813 100.66 31.7745 100.709 32.3318C100.758 32.889 101.272 33.2993 101.857 33.2481Z" stroke="#303335" stroke-width="0.5" stroke-linecap="square"/>
<path d="M1.61201 46.4389C2.19714 46.3877 2.63197 45.8945 2.58321 45.3372C2.53446 44.7799 2.02059 44.3697 1.43545 44.4209C0.85032 44.4721 0.415501 44.9653 0.464255 45.5226C0.51301 46.0799 1.02688 46.4901 1.61201 46.4389Z" stroke="#303335" stroke-width="0.5" stroke-linecap="square"/>
<path fill-rule="evenodd" clip-rule="evenodd" d="M24.2273 10.0542L77.8128 1.74903C80.1234 1.39092 82.29 2.96472 82.6638 5.27284L87.6203 35.8779C87.9959 38.1971 86.4203 40.3817 84.101 40.7574C84.0915 40.7589 84.082 40.7604 84.0725 40.7619L30.4869 49.067C28.1763 49.4252 26.0098 47.8514 25.636 45.5432L20.6794 14.9382C20.3038 12.6189 21.8795 10.4343 24.1987 10.0587C24.2082 10.0572 24.2177 10.0557 24.2273 10.0542Z" fill="#303335"/>
<path d="M20.5201 13.0675L74.5535 8.34022C76.894 8.13545 78.9574 9.86683 79.1622 12.2074L81.8635 43.0836C82.0683 45.4241 80.3369 47.4875 77.9964 47.6922L23.963 52.4195C21.6225 52.6243 19.5591 50.8929 19.3543 48.5524L16.653 17.6762C16.4482 15.3357 18.1796 13.2723 20.5201 13.0675Z" fill="#B9E86C"/>
<mask id="mask0_9706_79" style="mask-type:luminance" maskUnits="userSpaceOnUse" x="16" y="8" width="66" height="45">
<path d="M20.5201 13.0675L74.5535 8.34022C76.894 8.13545 78.9574 9.86683 79.1622 12.2074L81.8635 43.0836C82.0683 45.4241 80.3369 47.4875 77.9964 47.6922L23.963 52.4195C21.6225 52.6243 19.5591 50.8929 19.3543 48.5524L16.653 17.6762C16.4482 15.3357 18.1796 13.2723 20.5201 13.0675Z" fill="white"/>
</mask>
<g mask="url(#mask0_9706_79)">
<path fill-rule="evenodd" clip-rule="evenodd" d="M74.0944 16.5155C80.1091 15.8734 85.9087 21.5448 91.4933 33.5297C83.2464 47.3372 77.79 54.2723 75.124 54.335C71.1251 54.429 71.172 47.7478 74.5494 44.6253C77.9267 41.5029 73.4706 35.1112 69.5779 31.1912C65.6852 27.2713 65.0725 17.4786 74.0944 16.5155ZM7.21726 7.38531C1.01446 1.13495 3.0088 -12.315 8.97107 -11.6813C14.9333 -11.0477 36.4109 -1.51311 38.6246 8.71027C40.8383 18.9336 31.401 22.5688 34.2812 30.2503C39.3504 43.7699 19.1012 47.4856 16.0389 44.3019C11.6885 39.779 9.744 33.7966 15.1314 28.8127C20.5189 23.8288 13.42 13.6357 7.21726 7.38531Z" fill="#C9F283"/>
</g>
<mask id="mask1_9706_79" style="mask-type:luminance" maskUnits="userSpaceOnUse" x="16" y="8" width="66" height="45">
<path d="M20.5201 13.0675L74.5535 8.34022C76.894 8.13545 78.9574 9.86683 79.1622 12.2074L81.8635 43.0836C82.0683 45.4241 80.3369 47.4875 77.9964 47.6922L23.963 52.4195C21.6225 52.6243 19.5591 50.8929 19.3543 48.5524L16.653 17.6762C16.4482 15.3357 18.1796 13.2723 20.5201 13.0675Z" fill="white"/>
</mask>
<g mask="url(#mask1_9706_79)">
<path d="M67.1631 25.1557C67.7132 25.1075 68.1202 24.6225 68.0721 24.0723C68.024 23.5221 67.5389 23.1151 66.9887 23.1633C66.4386 23.2114 66.0316 23.6964 66.0797 24.2466C66.1278 24.7968 66.6129 25.2038 67.1631 25.1557Z" fill="#D9F8A8"/>
</g>
<mask id="mask2_9706_79" style="mask-type:luminance" maskUnits="userSpaceOnUse" x="16" y="8" width="66" height="45">
<path d="M20.5201 13.0675L74.5535 8.34022C76.894 8.13545 78.9574 9.86683 79.1622 12.2074L81.8635 43.0836C82.0683 45.4241 80.3369 47.4875 77.9964 47.6922L23.963 52.4195C21.6225 52.6243 19.5591 50.8929 19.3543 48.5524L16.653 17.6762C16.4482 15.3357 18.1796 13.2723 20.5201 13.0675Z" fill="white"/>
</mask>
<g mask="url(#mask2_9706_79)">
<path d="M14.0877 31.6452C21.392 29.0114 24.7352 32.2604 22.7505 39.0377L22.6806 39.2917C22.0099 41.89 22.9614 43.7061 25.2044 44.8013C27.115 45.7343 29.8975 46.0677 32.4965 45.807C34.8433 45.5715 36.3331 46.7909 36.4997 48.8559C36.6607 50.8536 35.5558 53.2907 33.4894 55.2691C32.2192 56.4853 29.1533 58.7107 26.254 60.2422C21.838 62.5747 17.9414 63.3841 15.0103 62.0443C13.8777 61.5266 12.8604 57.3662 11.8363 49.3737L11.6656 48.0061C9.09919 42.4843 8.31707 38.9236 9.36761 37.258C9.57115 36.9352 9.71387 36.6434 9.91695 36.1437L10.2504 35.3019C11.0383 33.3803 11.9085 32.431 14.0877 31.6452ZM22.2692 38.9133C24.148 32.4974 21.1671 29.6004 14.2611 32.0906C12.1512 32.8514 11.3926 33.738 10.6243 35.7004L10.4614 36.1165C10.2045 36.7647 10.0435 37.1075 9.79541 37.5008C8.86487 38.9762 9.62454 42.4347 12.1424 47.8784C13.2041 56.5082 14.2875 61.1838 15.2296 61.6145C17.9758 62.8698 21.7274 62.0905 26.0146 59.826C28.8717 58.3168 31.8995 56.119 33.1367 54.9345C35.1055 53.0495 36.1503 50.7449 36.0014 48.8964C35.8559 47.094 34.6093 46.0736 32.5447 46.2807L32.1402 46.3166C29.5715 46.5143 26.8801 46.1567 24.9735 45.2257C22.4539 43.9953 21.403 41.8711 22.2692 38.9133ZM45.1123 -0.68492C49.075 -6.8168 60.5064 -7.18942 79.3964 -1.89369C80.0713 -1.87158 80.759 -1.84484 81.4592 -1.81402L81.6678 -1.80483L81.8784 -0.441084C83.1001 7.60917 83.6792 14.06 83.606 18.9212C83.7127 21.2635 83.5702 23.006 83.1767 24.1536C82.6634 27.1044 81.6945 28.9556 80.2645 29.7121C74.5007 32.7615 69.4993 28.9565 69.8236 22.1458L69.8433 21.6604C70.0013 16.9362 68.9536 15.4895 63.8918 15.1748L63.7433 15.2116L60.69 15.9963C59.9419 16.1867 59.2733 16.3517 58.6133 16.5073L57.821 16.6906C47.6058 19.0082 39.2932 8.31983 45.1123 -0.68492ZM67.8789 14.5432C67.2103 14.5182 66.4291 14.6109 65.3307 14.8415C69.4845 15.3917 70.4876 17.1358 70.3425 21.671L70.3123 22.443C70.1429 28.735 74.7001 32.1069 80.017 29.294C81.0905 28.7261 81.8865 27.4369 82.4022 25.4294L82.3343 25.4937C78.6517 28.8984 72.6795 26.3616 71.4949 19.488L71.4424 19.1935C70.8198 15.8199 69.845 14.6166 67.8789 14.5432ZM79.3167 -1.41988C65.8709 -1.86511 57.4346 -0.67371 54.0438 2.1183L53.8901 2.249C48.6395 6.86129 52.3854 14.6961 60.2423 14.6284C61.6006 14.6168 62.7879 14.6356 63.8233 14.7001L64.1091 14.6284C65.8616 14.2053 66.9611 14.0322 67.8934 14.0671C70.2114 14.1537 71.3337 15.6187 71.988 19.4154L72.0429 19.7129C73.2977 26.0938 78.8211 28.2855 82.1314 25.0096C82.3547 24.7886 82.5413 24.473 82.6911 24.0632C82.9406 22.6116 83.0792 20.8761 83.1061 18.8578C82.9006 14.7382 81.9268 8.68293 80.1749 0.72135L79.7217 -1.30628L79.3167 -1.41988ZM76.9427 -2.06766C59.8306 -6.58495 49.4058 -6.07461 45.6597 -0.613968L45.5386 -0.432022C39.9543 8.20918 47.9164 18.4469 57.7006 16.2271C58.3615 16.0771 59.0033 15.9242 59.6963 15.7522L61.0144 15.4188L62.203 15.1113C61.8964 15.1059 61.5783 15.1029 61.2482 15.102L59.9997 15.1049C51.8711 15.0047 48.0106 6.76047 53.5488 1.89549C56.7981 -0.95883 64.732 -2.22995 77.3829 -1.95045L76.9427 -2.06766ZM80.211 -1.38852L80.5467 0.0968778C81.571 4.70808 82.3421 8.69266 82.8583 12.0559C82.5981 8.60622 82.136 4.65086 81.4703 0.191418L81.2364 -1.34619L80.211 -1.38852Z" fill="#38463F"/>
</g>
<mask id="mask3_9706_79" style="mask-type:luminance" maskUnits="userSpaceOnUse" x="16" y="8" width="66" height="45">
<path d="M20.5201 13.0675L74.5535 8.34022C76.894 8.13545 78.9574 9.86683 79.1622 12.2074L81.8635 43.0836C82.0683 45.4241 80.3369 47.4875 77.9964 47.6922L23.963 52.4195C21.6225 52.6243 19.5591 50.8929 19.3543 48.5524L16.653 17.6762C16.4482 15.3357 18.1796 13.2723 20.5201 13.0675Z" fill="white"/>
</mask>
<g mask="url(#mask3_9706_79)">
<path d="M34.2263 39.6182C34.7765 39.5701 35.1835 39.085 35.1353 38.5348C35.0872 37.9847 34.6022 37.5777 34.052 37.6258C33.5018 37.6739 33.0948 38.159 33.1429 38.7091C33.1911 39.2593 33.6761 39.6663 34.2263 39.6182Z" fill="#D9F8A8"/>
</g>
<mask id="mask4_9706_79" style="mask-type:luminance" maskUnits="userSpaceOnUse" x="16" y="8" width="66" height="45">
<path d="M20.5201 13.0675L74.5535 8.34022C76.894 8.13545 78.9574 9.86683 79.1622 12.2074L81.8635 43.0836C82.0683 45.4241 80.3369 47.4875 77.9964 47.6922L23.963 52.4195C21.6225 52.6243 19.5591 50.8929 19.3543 48.5524L16.653 17.6762C16.4482 15.3357 18.1796 13.2723 20.5201 13.0675Z" fill="white"/>
</mask>
<g mask="url(#mask4_9706_79)">
<path opacity="0.2" d="M47.0066 50.8818C48.6449 50.7385 49.8624 49.3573 49.7259 47.797C49.5894 46.2366 48.1506 45.0879 46.5122 45.2312C44.8738 45.3746 43.6563 46.7557 43.7928 48.3161C43.9293 49.8764 45.3682 51.0251 47.0066 50.8818Z" fill="#D9F8A8"/>
</g>
<mask id="mask5_9706_79" style="mask-type:luminance" maskUnits="userSpaceOnUse" x="16" y="8" width="66" height="45">
<path d="M20.5201 13.0675L74.5535 8.34022C76.894 8.13545 78.9574 9.86683 79.1622 12.2074L81.8635 43.0836C82.0683 45.4241 80.3369 47.4875 77.9964 47.6922L23.963 52.4195C21.6225 52.6243 19.5591 50.8929 19.3543 48.5524L16.653 17.6762C16.4482 15.3357 18.1796 13.2723 20.5201 13.0675Z" fill="white"/>
</mask>
<g mask="url(#mask5_9706_79)">
<path opacity="0.2" d="M57.4904 13.0606C59.1288 12.9172 60.3463 11.5361 60.2098 9.97575C60.0733 8.4154 58.6345 7.26668 56.9961 7.41002C55.3577 7.55336 54.1402 8.93447 54.2767 10.4948C54.4132 12.0552 55.8521 13.2039 57.4904 13.0606Z" fill="#D9F8A8"/>
</g>
<mask id="mask6_9706_79" style="mask-type:luminance" maskUnits="userSpaceOnUse" x="16" y="8" width="66" height="45">
<path d="M20.5201 13.0675L74.5535 8.34022C76.894 8.13545 78.9574 9.86683 79.1622 12.2074L81.8635 43.0836C82.0683 45.4241 80.3369 47.4875 77.9964 47.6922L23.963 52.4195C21.6225 52.6243 19.5591 50.8929 19.3543 48.5524L16.653 17.6762C16.4482 15.3357 18.1796 13.2723 20.5201 13.0675Z" fill="white"/>
</mask>
<g mask="url(#mask6_9706_79)">
<path fill-rule="evenodd" clip-rule="evenodd" d="M28.2639 18.0181L23.1784 18.4631C22.8376 18.4929 22.5411 18.658 22.3373 18.9009C22.1335 19.1438 22.0224 19.4644 22.0522 19.8053L22.3929 23.7001C22.4228 24.0409 22.5879 24.3374 22.8308 24.5412C23.0737 24.745 23.3943 24.8562 23.7351 24.8263L28.8206 24.3814C29.1615 24.3516 29.4579 24.1865 29.6617 23.9436C29.8655 23.7007 29.9767 23.38 29.9469 23.0392L29.6061 19.1444C29.5763 18.8036 29.4112 18.5071 29.1683 18.3033C28.9254 18.0995 28.6047 17.9883 28.2639 18.0181Z" fill="#303335" stroke="#C8F47C" stroke-width="0.5"/>
<path d="M29.5861 20.2969L27.8362 20.45C27.6021 20.4704 27.429 20.6768 27.4495 20.9108L27.7567 24.4232" stroke="#C8F47C" stroke-width="0.5" stroke-linecap="square"/>
<path d="M22.3445 22.3531L24.4634 22.1678" stroke="#C8F47C" stroke-width="0.5" stroke-linecap="square"/>
<path d="M22.468 23.7658L24.587 23.5804" stroke="#C8F47C" stroke-width="0.5" stroke-linecap="square"/>
<path d="M22.0973 19.5279L24.2162 19.3425" stroke="#C8F47C" stroke-width="0.5" stroke-linecap="square"/>
<path d="M22.2208 20.9405L24.3398 20.7551" stroke="#C8F47C" stroke-width="0.5" stroke-linecap="square"/>
<path d="M27.7654 23.3023L29.8843 23.1169" stroke="#C8F47C" stroke-width="0.5" stroke-linecap="square"/>
<path d="M27.6418 21.8897L29.7608 21.7043" stroke="#C8F47C" stroke-width="0.5" stroke-linecap="square"/>
<path d="M24.2428 18.4267L24.7901 24.6827" stroke="#C8F47C" stroke-width="0.5" stroke-linecap="square"/>
</g>
<mask id="mask7_9706_79" style="mask-type:luminance" maskUnits="userSpaceOnUse" x="16" y="8" width="66" height="45">
<path d="M20.5201 13.0675L74.5535 8.34022C76.894 8.13545 78.9574 9.86683 79.1622 12.2074L81.8635 43.0836C82.0683 45.4241 80.3369 47.4875 77.9964 47.6922L23.963 52.4195C21.6225 52.6243 19.5591 50.8929 19.3543 48.5524L16.653 17.6762C16.4482 15.3357 18.1796 13.2723 20.5201 13.0675Z" fill="white"/>
</mask>
<g mask="url(#mask7_9706_79)">
<path d="M37.5068 36.3901L30.3024 37.0204C29.6002 37.0818 29.0808 37.7008 29.1422 38.403L29.4141 41.5108C29.4756 42.2129 30.0946 42.7323 30.7967 42.6709L38.0012 42.0406C38.7033 41.9792 39.2228 41.3602 39.1613 40.658L38.8894 37.5502C38.828 36.848 38.209 36.3286 37.5068 36.3901Z" fill="#ACE153"/>
</g>
<mask id="mask8_9706_79" style="mask-type:luminance" maskUnits="userSpaceOnUse" x="16" y="8" width="66" height="45">
<path d="M20.5201 13.0675L74.5535 8.34022C76.894 8.13545 78.9574 9.86683 79.1622 12.2074L81.8635 43.0836C82.0683 45.4241 80.3369 47.4875 77.9964 47.6922L23.963 52.4195C21.6225 52.6243 19.5591 50.8929 19.3543 48.5524L16.653 17.6762C16.4482 15.3357 18.1796 13.2723 20.5201 13.0675Z" fill="white"/>
</mask>
<g mask="url(#mask8_9706_79)">
<path d="M48.9492 35.389L41.7448 36.0193C41.0426 36.0808 40.5232 36.6998 40.5846 37.4019L40.8565 40.5097C40.9179 41.2119 41.537 41.7313 42.2391 41.6699L49.4436 41.0396C50.1457 40.9781 50.6651 40.3591 50.6037 39.657L50.3318 36.5492C50.2704 35.847 49.6514 35.3276 48.9492 35.389Z" fill="#ACE153"/>
</g>
<mask id="mask9_9706_79" style="mask-type:luminance" maskUnits="userSpaceOnUse" x="16" y="8" width="66" height="45">
<path d="M20.5201 13.0675L74.5535 8.34022C76.894 8.13545 78.9574 9.86683 79.1622 12.2074L81.8635 43.0836C82.0683 45.4241 80.3369 47.4875 77.9964 47.6922L23.963 52.4195C21.6225 52.6243 19.5591 50.8929 19.3543 48.5524L16.653 17.6762C16.4482 15.3357 18.1796 13.2723 20.5201 13.0675Z" fill="white"/>
</mask>
<g mask="url(#mask9_9706_79)">
<path d="M60.3916 34.3879L53.1871 35.0182C52.485 35.0797 51.9656 35.6987 52.027 36.4008L52.2989 39.5086C52.3603 40.2108 52.9793 40.7302 53.6815 40.6688L60.8859 40.0385C61.5881 39.977 62.1075 39.358 62.0461 38.6559L61.7742 35.5481C61.7128 34.8459 61.0937 34.3265 60.3916 34.3879Z" fill="#ACE153"/>
</g>
<mask id="mask10_9706_79" style="mask-type:luminance" maskUnits="userSpaceOnUse" x="16" y="8" width="66" height="45">
<path d="M20.5201 13.0675L74.5535 8.34022C76.894 8.13545 78.9574 9.86683 79.1622 12.2074L81.8635 43.0836C82.0683 45.4241 80.3369 47.4875 77.9964 47.6922L23.963 52.4195C21.6225 52.6243 19.5591 50.8929 19.3543 48.5524L16.653 17.6762C16.4482 15.3357 18.1796 13.2723 20.5201 13.0675Z" fill="white"/>
</mask>
<g mask="url(#mask10_9706_79)">
<path d="M71.8339 33.3868L64.6294 34.0171C63.9272 34.0786 63.4078 34.6976 63.4693 35.3997L63.7412 38.5075C63.8026 39.2097 64.4216 39.7291 65.1238 39.6677L72.3282 39.0374C73.0304 38.9759 73.5498 38.3569 73.4884 37.6548L73.2165 34.547C73.155 33.8448 72.536 33.3254 71.8339 33.3868Z" fill="#ACE153"/>
</g>
<path d="M17.9684 32.7104C12.2613 33.2097 4.99883 40.7896 10.0933 44.1849C15.1877 47.5802 21.6157 46.7919 38.1982 35.0442C54.7807 23.2966 64.91 39.1515 78.5648 34.8905C92.2197 30.6294 96.3075 20.7829 93.9595 15.6182C92.3941 12.175 88.0308 10.8715 80.8694 11.7077" stroke="#303335" stroke-width="0.5" stroke-linecap="square"/>
<path d="M80.9902 34.0377C83.2817 33.1359 85.2573 32.0672 86.9364 30.8953" stroke="#C8F47C" stroke-width="0.5" stroke-linecap="square"/>
</g>
<defs>
<clipPath id="clip0_9706_79">
<rect width="104" height="57" fill="white"/>
</clipPath>
</defs>
</svg>
