<svg viewBox="0 0 41 41" xmlns="http://www.w3.org/2000/svg" xmlns:xlink="http://www.w3.org/1999/xlink" width="41.000000" height="41.000000" fill="none" customFrame="#000000">
	<path id="logo_icon" d="M41 5C41 2.23858 38.7614 0 36 0C33.2386 0 31 2.23858 31 5C31 7.76142 33.2386 10 36 10C38.7614 10 41 7.76142 41 5ZM12 1L27.9355 1C27.3367 2.20496 27 3.56316 27 5C27 9.97056 31.0294 14 36 14C37.4368 14 38.795 13.6633 40 13.0645L40 29C40 35.6274 34.6274 41 28 41L12 41C5.37258 41 0 35.6274 0 29L0 13C0 6.37258 5.37258 1 12 1ZM14.38 26.42C14.38 26.8067 14.1867 27 13.8 27L11.8 27C11.6067 27 11.4617 26.9517 11.365 26.855C11.2683 26.7583 11.22 26.6133 11.22 26.42L11.22 16.96C11.22 16.7799 11.265 16.6432 11.355 16.55C11.4516 16.45 11.5999 16.4 11.8 16.4L13.66 16.4C13.98 16.4 14.2 16.5467 14.32 16.84L14.38 17.5C14.7 17.0467 15.13 16.7 15.67 16.46C16.21 16.22 16.8 16.1 17.44 16.1C18.2298 16.1 18.8981 16.2823 19.4449 16.6468C19.9227 16.9653 20.3078 17.4231 20.6 18.02C21.0267 17.3533 21.56 16.8633 22.2 16.55C22.84 16.2367 23.5067 16.08 24.2 16.08C24.96 16.08 25.5967 16.1967 26.11 16.43C26.4412 16.5805 26.7224 16.7783 26.9537 17.0232C27.0809 17.1578 27.193 17.3068 27.29 17.47C27.5633 17.93 27.7567 18.4467 27.87 19.02C27.9833 19.5933 28.04 20.2733 28.04 21.06L28.04 26.42C28.04 26.8067 27.8467 27 27.46 27L25.46 27C25.2667 27 25.1217 26.9517 25.025 26.855C24.9283 26.7583 24.88 26.6133 24.88 26.42L24.88 20.91C24.88 20.7967 24.87 20.6133 24.85 20.36C24.83 20.1067 24.8 19.9233 24.76 19.81C24.72 19.6967 24.6633 19.5467 24.59 19.36C24.5167 19.1733 24.4233 19.0367 24.31 18.95C24.1967 18.8633 24.0533 18.7867 23.88 18.72C23.7067 18.6533 23.5067 18.62 23.28 18.62C23 18.62 22.75 18.6733 22.53 18.78C22.31 18.8867 22.1367 19.0067 22.01 19.14C21.8833 19.2733 21.7667 19.4667 21.66 19.72C21.5533 19.9733 21.4767 20.18 21.43 20.34C21.3833 20.5 21.3267 20.7267 21.26 21.02C21.2333 21.1133 21.2133 21.18 21.2 21.22L21.2 26.42C21.2 26.8067 21.0067 27 20.62 27L18.62 27C18.4267 27 18.2817 26.9517 18.185 26.855C18.0883 26.7583 18.04 26.6133 18.04 26.42L18.04 21.48C18.04 21.1467 18.0367 20.8767 18.03 20.67C18.0233 20.4633 17.99 20.2167 17.93 19.93C17.87 19.6433 17.7867 19.4133 17.68 19.24C17.5733 19.0667 17.4133 18.92 17.2 18.8C16.9867 18.68 16.7333 18.62 16.44 18.62C16.1467 18.62 15.8833 18.6767 15.65 18.79C15.4167 18.9033 15.2367 19.03 15.11 19.17C14.9833 19.31 14.8667 19.51 14.76 19.77C14.6533 20.03 14.5833 20.2367 14.55 20.39C14.5167 20.5433 14.4733 20.76 14.42 21.04C14.4067 21.1333 14.3933 21.2067 14.38 21.26L14.38 26.42Z" fill="rgb(138,206,23)" fill-rule="evenodd" />
	<path id="logo_icon" d="M36 0C38.7614 0 41 2.23858 41 5C41 7.76142 38.7614 10 36 10C33.2386 10 31 7.76142 31 5C31 2.23858 33.2386 0 36 0ZM9.56045 2.26953Q10.7497 2 12 2L26.4556 2Q26.3657 2.28457 26.2936 2.57353Q26 3.75013 26 5Q26 6.1151 26.2364 7.17762Q26.4311 8.05303 26.7863 8.89276Q27.1447 9.74024 27.6424 10.496Q28.1987 11.3408 28.9289 12.0711Q29.6592 12.8013 30.5039 13.3576Q31.2597 13.8553 32.1072 14.2137Q32.947 14.5689 33.8225 14.7637Q34.885 15 36 15Q37.2499 15 38.4266 14.7063Q38.7155 14.6342 39 14.5444L39 29Q39 30.2504 38.7305 31.4396Q38.5174 32.3796 38.136 33.2814Q37.7466 34.202 37.2075 35.0245Q36.5908 35.9655 35.7782 36.7782Q34.9656 37.5907 34.0247 38.2074Q33.2021 38.7466 32.2814 39.136Q31.3796 39.5174 30.4396 39.7305Q29.2503 40 28 40L12 40Q10.7496 40 9.56039 39.7305Q8.62042 39.5174 7.71861 39.136Q6.79805 38.7466 5.97557 38.2076Q5.0345 37.5908 4.22183 36.7782Q3.40901 35.9654 2.79219 35.0241Q2.25331 34.2018 1.86402 33.2814Q1.48257 32.3795 1.26953 31.4395Q1 30.2503 1 29L1 13Q1 11.7497 1.26954 10.5604Q1.48258 9.62044 1.86402 8.71861Q2.25337 7.7981 2.79235 6.97566Q3.40912 6.03453 4.22183 5.22183Q5.03455 4.4091 5.97568 3.79234Q6.79811 3.25336 7.71861 2.86402Q8.62045 2.48258 9.56045 2.26953ZM39 13.4879C38.0617 13.8195 37.0519 14 36 14C31.0294 14 27 9.97056 27 5C27 3.94809 27.1805 2.93834 27.5121 2C27.6335 1.65662 27.7751 1.32281 27.9355 1L12 1C5.37258 1 0 6.37258 0 13L0 29C0 35.6274 5.37258 41 12 41L28 41C34.6274 41 40 35.6274 40 29L40 13.0645C39.6772 13.2249 39.3434 13.3665 39 13.4879ZM39.7071 3.46446Q40 4.17157 40 5Q40 5.82842 39.7071 6.53553Q39.4142 7.24264 38.8284 7.82843Q38.2426 8.41422 37.5355 8.70711Q36.8284 9 36 9Q35.1716 9 34.4645 8.70711Q33.7574 8.41422 33.1716 7.82843Q32.5858 7.24264 32.2929 6.53553Q32 5.82843 32 5Q32 4.17157 32.2929 3.46446Q32.5858 2.75736 33.1716 2.17157Q33.7574 1.58578 34.4645 1.29289Q35.1716 1 36 1Q36.8284 1 37.5355 1.29289Q38.2426 1.58578 38.8284 2.17157Q39.4142 2.75736 39.7071 3.46446ZM15.1568 27.2898Q15.38 26.9228 15.38 26.42L15.38 21.3644Q15.3938 21.2914 15.4064 21.2057Q15.4812 20.814 15.5272 20.6024Q15.5585 20.4583 15.6852 20.1496Q15.7788 19.9213 15.8515 19.8409Q15.9114 19.7748 16.0869 19.6895Q16.23 19.62 16.44 19.62Q16.618 19.62 16.7097 19.6716Q16.8041 19.7246 16.8283 19.7641Q16.8969 19.8756 16.9512 20.1349Q17.0233 20.4795 17.0305 20.7022Q17.04 20.9961 17.04 21.48L17.04 26.42Q17.04 26.9228 17.2632 27.2898Q17.3527 27.4369 17.4779 27.5621Q17.6031 27.6873 17.7502 27.7768Q18.1172 28 18.62 28L20.62 28Q21.1228 28 21.4898 27.7768Q21.6369 27.6874 21.7621 27.5621Q21.8874 27.4369 21.9768 27.2898Q22.2 26.9228 22.2 26.42L22.2 21.3692Q22.2102 21.3344 22.2215 21.2947L22.2291 21.2684L22.2351 21.2416Q22.3285 20.831 22.39 20.62Q22.4439 20.4351 22.5816 20.1081Q22.6708 19.8964 22.735 19.8288Q22.7998 19.7605 22.9663 19.6798Q23.0896 19.62 23.28 19.62Q23.4343 19.62 23.521 19.6533Q23.6023 19.6846 23.6544 19.7135Q23.6567 19.7192 23.6593 19.7257Q23.7628 19.9893 23.817 20.1428Q23.8334 20.1893 23.8531 20.4387Q23.88 20.7794 23.88 20.91L23.88 26.42Q23.88 26.9228 24.1032 27.2898Q24.1927 27.4369 24.3179 27.5621Q24.4431 27.6873 24.5902 27.7768Q24.9572 28 25.46 28L27.46 28Q27.9628 28 28.3298 27.7768Q28.4769 27.6874 28.6021 27.5621Q28.7274 27.4369 28.8168 27.2898Q29.04 26.9228 29.04 26.42L29.04 21.06Q29.04 19.7821 28.851 18.8261Q28.6476 17.7972 28.1497 16.9592Q27.9756 16.6662 27.7534 16.4158Q27.7177 16.3756 27.6807 16.3365Q27.6184 16.2705 27.5528 16.2079Q27.1117 15.7869 26.5238 15.5196Q25.5566 15.08 24.2 15.08Q23.704 15.08 23.2237 15.167Q22.4727 15.3031 21.7603 15.6519Q21.4968 15.7808 21.2533 15.9402Q20.95 16.1386 20.6776 16.3842Q20.4485 16.1446 20.1872 15.9478Q20.0954 15.8786 19.9996 15.8147Q19.8968 15.7462 19.7902 15.6842Q18.7848 15.1 17.44 15.1Q16.4231 15.1 15.5329 15.4358Q15.3969 15.4871 15.2639 15.5462Q15.0164 15.6562 14.7919 15.7897Q14.7183 15.7236 14.6372 15.6688Q14.2394 15.4 13.66 15.4L11.8 15.4Q11.2814 15.4 10.9087 15.6332Q10.7606 15.7259 10.6356 15.8554Q10.5142 15.9812 10.4282 16.1278Q10.22 16.4828 10.22 16.96L10.22 26.42Q10.22 26.9228 10.4432 27.2898Q10.5326 27.4369 10.6579 27.5621Q10.7831 27.6874 10.9302 27.7768Q11.2972 28 11.8 28L13.8 28Q14.3028 28 14.6698 27.7768Q14.8169 27.6874 14.9421 27.5621Q15.0674 27.4369 15.1568 27.2898ZM15.3066 16.6474C14.9335 16.8693 14.6246 17.1535 14.38 17.5L14.32 16.84C14.241 16.6469 14.1187 16.5174 13.953 16.4514C13.867 16.4171 13.7694 16.4 13.66 16.4L11.8 16.4C11.5999 16.4 11.4516 16.45 11.355 16.55C11.265 16.6432 11.22 16.7799 11.22 16.96L11.22 26.42C11.22 26.6133 11.2683 26.7583 11.365 26.855C11.4617 26.9517 11.6067 27 11.8 27L13.8 27Q14.09 27 14.235 26.855Q14.38 26.71 14.38 26.42L14.38 21.26C14.3933 21.2067 14.4067 21.1333 14.42 21.04C14.4733 20.76 14.5167 20.5433 14.55 20.39C14.5833 20.2367 14.6533 20.03 14.76 19.77C14.8667 19.51 14.9833 19.31 15.11 19.17C15.2367 19.03 15.4167 18.9033 15.65 18.79C15.8833 18.6767 16.1467 18.62 16.44 18.62C16.7333 18.62 16.9867 18.68 17.2 18.8C17.4133 18.92 17.5733 19.0667 17.68 19.24C17.7867 19.4133 17.87 19.6433 17.93 19.93C17.99 20.2167 18.0233 20.4633 18.03 20.67C18.0367 20.8767 18.04 21.1467 18.04 21.48L18.04 26.42Q18.04 26.71 18.185 26.855C18.2817 26.9517 18.4267 27 18.62 27L20.62 27C21.0067 27 21.2 26.8067 21.2 26.42L21.2 21.22C21.2133 21.18 21.2333 21.1133 21.26 21.02C21.3267 20.7267 21.3833 20.5 21.43 20.34C21.4767 20.18 21.5533 19.9733 21.66 19.72C21.7667 19.4667 21.8833 19.2733 22.01 19.14C22.1367 19.0067 22.31 18.8867 22.53 18.78C22.75 18.6733 23 18.62 23.28 18.62C23.5067 18.62 23.7067 18.6533 23.88 18.72C24.0533 18.7867 24.1967 18.8633 24.31 18.95C24.4233 19.0367 24.5167 19.1733 24.59 19.36C24.6633 19.5467 24.72 19.6967 24.76 19.81C24.8 19.9233 24.83 20.1067 24.85 20.36C24.87 20.6133 24.88 20.7967 24.88 20.91L24.88 26.42Q24.88 26.71 25.025 26.855C25.1217 26.9517 25.2667 27 25.46 27L27.46 27C27.8467 27 28.04 26.8067 28.04 26.42L28.04 21.06Q28.04 19.88 27.87 19.02C27.7567 18.4467 27.5633 17.93 27.29 17.47C27.193 17.3068 27.0809 17.1578 26.9537 17.0232C26.7224 16.7783 26.4412 16.5805 26.11 16.43C25.5967 16.1967 24.96 16.08 24.2 16.08C23.5067 16.08 22.84 16.2367 22.2 16.55C21.8656 16.7137 21.5604 16.9256 21.2843 17.1857C21.0319 17.4235 20.8038 17.7016 20.6 18.02C20.4317 17.6762 20.2326 17.3785 20.0027 17.1271C19.8334 16.942 19.6475 16.7819 19.4449 16.6468C18.8981 16.2823 18.2298 16.1 17.44 16.1Q16.5311 16.1 15.7567 16.4227Q15.7131 16.4408 15.67 16.46C15.5428 16.5165 15.4216 16.579 15.3066 16.6474Z" fill="rgb(151,151,151)" fill-opacity="0" fill-rule="evenodd" />
</svg>
