<svg xmlns="http://www.w3.org/2000/svg" xmlns:xlink="http://www.w3.org/1999/xlink"><defs/><symbol id="arrow-drop" viewBox="0 0 1026 1024"><path d="M511.996621 679.29088l432.9472-432.77312a46.32064 46.32064 0 0 1 65.48992 0 46.27456 46.27456 0 0 1 0 65.4592l-465.69472 465.50528a46.32064 46.32064 0 0 1-65.4848 0L13.559501 311.97696a46.27456 46.27456 0 0 1 0-65.4592 46.32064 46.32064 0 0 1 65.4848 0L511.996621 679.29088z"/></symbol><symbol id="calendar" viewBox="0 0 24 23">
    <title>icon_calendar</title>
    <g id="Page-1" fill-rule="evenodd">
        <g id="Money_broz_Step2_768" transform="translate(-330.000000, -702.000000)" fill-rule="nonzero">
            <g id="form" transform="translate(129.000000, 110.000000)">
                <g id="Group-9" transform="translate(50.000000, 205.000000)">
                    <g id="icon_calendar" transform="translate(152.000000, 388.000000)">
                        <path d="M19,1 L3,1 C0.790861001,1 -1,2.790861 -1,5 L-1,18 C-1,20.209139 0.790861001,22 3,22 L19,22 C21.209139,22 23,20.209139 23,18 L23,5 C23,2.790861 21.209139,1 19,1 Z M3,3 L19,3 C20.1045695,3 21,3.8954305 21,5 L21,18 C21,19.1045695 20.1045695,20 19,20 L3,20 C1.8954305,20 1,19.1045695 1,18 L1,5 C1,3.8954305 1.8954305,3 3,3 Z" id="Rectangle"/>
                        <path d="M22,7 C22.5522847,7 23,7.44771525 23,8 C23,8.51283584 22.6139598,8.93550716 22.1166211,8.99327227 L22,9 L0,9 C-0.55228475,9 -1,8.55228475 -1,8 C-1,7.48716416 -0.61395981,7.06449284 -0.116621125,7.00672773 L0,7 L22,7 Z" id="Path"/>
                        <path d="M6,-1 C6.51283584,-1 6.93550716,-0.61395981 6.99327227,-0.116621125 L7,0 L7,4 C7,4.55228475 6.55228475,5 6,5 C5.48716416,5 5.06449284,4.61395981 5.00672773,4.11662113 L5,4 L5,0 C5,-0.55228475 5.44771525,-1 6,-1 Z" id="Path"/>
                        <path d="M16,-1 C16.5128358,-1 16.9355072,-0.61395981 16.9932723,-0.116621125 L17,0 L17,4 C17,4.55228475 16.5522847,5 16,5 C15.4871642,5 15.0644928,4.61395981 15.0067277,4.11662113 L15,4 L15,0 C15,-0.55228475 15.4477153,-1 16,-1 Z" id="Path"/>
                    </g>
                </g>
            </g>
        </g>
    </g>
</symbol><symbol id="check" viewBox="0 0 36 36" role="img"><path d="M34.459 1.375a2.999 2.999 0 0 0-4.149.884L13.5 28.17l-8.198-7.58a2.999 2.999 0 1 0-4.073 4.405l10.764 9.952s.309.266.452.359a2.999 2.999 0 0 0 4.15-.884L35.343 5.524a2.999 2.999 0 0 0-.884-4.149z"/></symbol><symbol id="cross" viewBox="0 0 16.1421 16.1421">
	<path id="icon_close_small" d="M1.70711 0.292893L1.6129 0.209705L1.5114 0.140381C1.12751 -0.0883879 0.623337 -0.0375504 0.292893 0.292893C-0.097631 0.683418 -0.097631 1.31658 0.292893 1.70711L6.65647 8.071L0.292893 14.435L0.209705 14.5292C-0.0953203 14.9215 -0.0675907 15.4888 0.292893 15.8492C0.683418 16.2398 1.31658 16.2398 1.70711 15.8492L8.07047 9.485L14.435 15.8492L14.5292 15.9324C14.9215 16.2375 15.4888 16.2097 15.8492 15.8492C16.2398 15.4587 16.2398 14.8256 15.8492 14.435L9.48447 8.071L15.8492 1.70711L15.9324 1.6129C16.2375 1.22061 16.2097 0.653377 15.8492 0.292893C15.4587 -0.0976311 14.8256 -0.0976311 14.435 0.292893L8.07047 6.656L1.70711 0.292893Z" fill-rule="evenodd"/>
</symbol><symbol id="menu" viewBox="0 0 25 19">
	<g id="icon_menu">
		<path id="Combined Shape" d="M23.5 0C24.3284 0 25 0.671573 25 1.5C25 2.2797 24.4051 2.92045 23.6445 2.99313L23.5 3L1.5 3C0.671573 3 0 2.32843 0 1.5C0 0.720304 0.594888 0.0795513 1.35554 0.00686658L1.5 0L23.5 0ZM25 9.5C25 8.67157 24.3284 8 23.5 8L1.5 8L1.35554 8.00687C0.594888 8.07955 0 8.7203 0 9.5C0 10.3284 0.671573 11 1.5 11L23.5 11L23.6445 10.9931C24.4051 10.9204 25 10.2797 25 9.5ZM23.5 16C24.3284 16 25 16.6716 25 17.5C25 18.2797 24.4051 18.9204 23.6445 18.9931L23.5 19L1.5 19C0.671573 19 0 18.3284 0 17.5C0 16.7203 0.594888 16.0796 1.35554 16.0069L1.5 16L23.5 16Z" fill-rule="evenodd"/>
	</g>
</symbol><symbol id="pen" viewBox="0 0 30 30">
    <title>icon edit</title>
    <g id="icon-edit" fill-rule="evenodd">
        <g id="Group" transform="translate(15.012093, 14.803873) rotate(-45.000000) translate(-15.012093, -14.803873) translate(3.012093, 2.803873)" fill-rule="nonzero">
            <path d="M5.09101242,15.426816 L3.69868906,19.5955005 C3.59371301,19.909804 3.7634064,20.2496972 4.07770987,20.3546733 C4.2010776,20.3958776 4.33449405,20.3958776 4.45786179,20.3546733 L8.62654633,18.9623499 L8.62654633,18.9623499 L19.2278725,8.36102377 C20.0089137,7.57997195 20.0089161,6.31364608 19.2278778,5.53259134 L18.5207604,4.82546864 C17.7397216,4.04441026 16.4733916,4.04440551 15.6923401,4.82545117 C15.6923378,4.82545346 15.6923355,4.82545575 15.6923401,4.8254649 L5.09101242,15.426816 L5.09101242,15.426816 Z" id="Shape" transform="translate(11.857190, 12.196018) rotate(45.000000) translate(-11.857190, -12.196018) "/>
            <line x1="17.7808003" y1="14.626883" x2="17.7808003" y2="10.2819137" id="Line-2" stroke-linecap="round"/>
        </g>
    </g>
</symbol></svg>