<?xml version="1.0" encoding="UTF-8"?>
<svg width="759px" height="312px" viewBox="0 0 759 312" version="1.1" xmlns="http://www.w3.org/2000/svg" xmlns:xlink="http://www.w3.org/1999/xlink">
    <title>bg_footer_768</title>
    <defs>
        <path d="M30.4773012,0.326449399 L724.381143,0.326449399 C740.949686,0.326449399 754.381143,13.7579069 754.381143,30.3264494 C754.381143,31.3072686 754.333043,32.2874977 754.237016,33.2636048 L733.150101,247.609852 C731.696001,262.390621 719.64562,273.882584 704.812531,274.634251 L31.9956034,308.729259 C15.4482937,309.567794 1.35428166,296.833316 0.515746492,280.286007 C0.490120381,279.780311 0.477301164,279.274048 0.477301164,278.767704 L0.477301164,30.3264494 C0.477301164,13.7579069 13.9087587,0.326449399 30.4773012,0.326449399 Z" id="path-1"></path>
    </defs>
    <g id="Page-1" stroke="none" stroke-width="1" fill="none" fill-rule="evenodd">
        <g id="Lk_edit_768" transform="translate(0.000000, -1980.000000)">
            <g id="Footer_769" transform="translate(0.000000, 1980.000000)">
                <g id="Footer">
                    <g id="footer_375">
                        <g id="Group-37">
                            <g id="bg_footer_768">
                                <g id="Group-2" transform="translate(379.522699, 156.173551) scale(-1, 1) translate(-379.522699, -156.173551) translate(0.522699, 0.673551)">
                                    <mask id="mask-2" fill="white">
                                        <use xlink:href="#path-1"></use>
                                    </mask>
                                    <use id="Rectangle" fill="#F4FFE2" xlink:href="#path-1"></use>
                                    <path d="M662.746255,84.6445511 C710.271949,73.2149203 768.661209,129.28378 837.914036,252.85113 C771.89989,380.825669 726.414691,443.317442 701.458442,440.326449 C664.024068,435.839961 649.740156,383.360466 685.421821,357.326449 C721.103487,331.292432 637.903744,310.291508 602.690523,239.205508 C567.477301,168.119508 591.457716,101.788997 662.746255,84.6445511 Z M-188.856319,-156.413873 C-244.068974,-226.033622 -213.113638,-362.089468 -155.451915,-350.249726 C-97.7901918,-338.409983 103.727707,-221.434744 116.606336,-114.673551 C129.484965,-7.91235683 34.2546378,20.8817204 55.8100945,102.189222 C93.7483102,245.292732 -107.094588,265.217466 -134.269105,229.843166 C-172.874623,179.588613 -186.747203,116.532769 -129.899241,70.2848371 C-73.051279,24.0369051 -133.643664,-86.7941248 -188.856319,-156.413873 Z" id="Combined-Shape" fill="#EBFFC3" mask="url(#mask-2)"></path>
                                    <circle id="Oval-Copy-7" fill="#DCF4B2" mask="url(#mask-2)" transform="translate(20.477301, 214.326449) scale(-1, 1) translate(-20.477301, -214.326449) " cx="20.4773012" cy="214.326449" r="8"></circle>
                                    <circle id="Oval-Copy-8" fill="#DCF4B2" mask="url(#mask-2)" cx="220.477301" cy="3.3264494" r="8"></circle>
                                    <path d="M5.8050483,111.020049 C25.0764762,89.40677 46.2157471,79.6427099 76.0957525,83.3574418 C93.6175527,85.535781 110.145663,101.664248 117.943391,124.279778 C126.601038,149.38931 123.591873,178.573149 107.419185,205.489023 L107.419185,205.489023 L106.936306,206.29899 C91.1427953,233.000867 89.3519562,257.020295 99.9258536,276.605219 C109.438117,294.22379 128.724666,307.391629 152.866242,313.660078 L152.866242,313.660078 L153.5704,313.847613 C176.759967,320.178754 195.205744,340.582701 200.46096,365.986369 C202.142344,374.114168 202.447437,382.400773 201.364957,390.682604 C223.768682,394.802395 236.324856,412.061453 236.17293,437.062089 C235.997768,465.886505 218.947398,499.717557 189.88697,525.786047 C184.03641,531.034259 171.399364,540.627399 157.095769,550.342236 L157.095769,550.342236 L154.555348,552.057023 C133.635091,566.090409 111.31406,579.048043 89.0167301,589.544565 C61.524138,602.486769 35.4181637,611.055527 11.5963658,614.199239 C-16.1353287,617.858932 -40.0811847,614.068647 -59.4187765,601.809658 C-73.2777709,593.023803 -82.1222241,523.103813 -86.2710931,391.24158 L-86.2682171,391.328237 L-87.0537806,388.895659 C-113.361467,307.134458 -119.390493,255.165667 -105.031055,232.838508 L-105.031055,232.838508 L-104.585112,232.164283 C-101.682276,227.896681 -99.1641774,223.253028 -96.3697618,217.253677 C-95.8221497,216.078004 -95.3474933,215.038949 -94.7396186,213.681756 L-94.7396186,213.681756 L-91.9611688,207.421558 C-85.8358947,193.693015 -82.1933609,187.080137 -76.074963,179.946774 L-76.074963,179.946774 L-75.4649941,179.243184 C-66.4670593,168.971839 -54.2987715,161.44262 -37.0882013,156.350728 C-32.6665056,155.042532 -28.3615747,153.892591 -24.1753312,152.899461 C-21.4067135,147.362264 -18.6411619,142.77261 -15.8785663,139.12885 C-14.9830416,137.947687 -14.1071735,136.774291 -13.0255183,135.307671 L-13.0255183,135.307671 L-9.41546471,130.386037 C-2.27574568,120.65306 0.646227518,116.876808 5.22163028,111.678622 L5.22163028,111.678622 Z M-24.8650386,154.29627 L-25.2967435,154.403145 C-29.0194617,155.311973 -32.8368836,156.344358 -36.7477585,157.501423 C-53.7464643,162.530633 -65.7184467,169.938387 -74.5623598,180.033912 C-81.0553886,187.44585 -84.7038058,194.049613 -91.1710828,208.597119 L-91.1710828,208.597119 L-92.2966999,211.140259 C-93.2885782,213.382306 -93.9287693,214.816003 -94.5382631,216.1493 L-94.8799817,216.893357 L-95.6482367,218.542272 C-98.3236318,224.221136 -100.776422,228.698559 -103.592894,232.839192 C-118.373447,254.568805 -112.24826,307.354996 -85.1006708,391.037564 L-85.1006708,391.037564 L-85.0716867,391.203843 C-80.9491135,522.230322 -72.077656,592.363796 -58.7762709,600.796156 C-22.928535,623.521685 28.4169827,616.745726 88.5056277,588.458851 C110.744029,577.99007 133.0138,565.062193 153.886856,551.060469 C168.752811,541.088332 182.172009,530.985266 188.555846,525.363561 L188.555846,525.363561 L189.085672,524.892782 C217.906944,499.038827 234.799973,465.519967 234.972952,437.054797 C235.121261,412.649399 222.988165,395.902945 201.200546,391.871696 C198.216486,412.198599 186.870299,432.448406 166.994453,450.203288 C158.306819,457.963859 147.15511,467.022834 134.453487,476.164969 C116.610777,489.007459 98.1071079,500.265258 79.4764512,509.036766 C29.5539349,532.540808 -14.8829898,535.479627 -49.7288816,510.705105 C-62.9871317,501.278834 -67.8480567,431.182637 -64.5763098,299.483387 C-51.2428728,229.71315 -38.0168389,181.332889 -24.8650386,154.29627 Z M63.6614236,170.360264 C48.042168,150.152203 18.4314319,144.13393 -23.3542254,153.938108 C-36.5711773,180.629522 -49.9286462,229.221526 -63.3871591,299.610876 C-66.627499,430.367941 -61.7512485,500.685137 -49.0335421,509.727095 C-14.6117247,534.200111 29.3938795,531.289818 78.9652972,507.951077 C97.5233279,499.213762 115.96562,487.993305 133.752474,475.191018 C146.417877,466.074952 157.537278,457.042223 166.195019,449.308355 C185.874718,431.728689 197.08274,411.723275 200.017201,391.667881 C196.720117,391.134581 193.209743,390.88652 189.494854,390.939354 C154.08901,391.442909 116.914788,382.739232 91.9834591,365.981113 C61.1307105,345.242786 50.1907906,313.920356 64.6086372,272.641568 C80.3121763,227.681798 80.0428771,191.554451 63.6614236,170.360264 Z M75.9477062,84.5482744 C46.1985803,80.8498137 25.3077481,90.6747059 6.12240058,112.471473 C1.96269407,117.19738 -0.826693685,120.747298 -6.72830263,128.756465 L-6.72830263,128.756465 L-11.6605887,135.478087 C-12.3443544,136.407221 -12.9438825,137.217191 -13.5083676,137.973674 L-13.5083676,137.973674 L-14.9223301,139.853842 C-17.494282,143.24615 -20.0719647,147.476541 -22.6550772,152.544246 C19.0441391,142.965051 48.7796235,149.14407 64.6108762,169.626411 C81.2928735,191.209439 81.5651316,227.733724 65.7415214,273.037262 C51.5060659,313.793858 62.2473028,344.547432 92.6528898,364.98519 C117.357783,381.591105 154.297278,390.239825 189.477789,389.739475 C193.253019,389.685783 196.823986,389.937724 200.181493,390.477946 C201.239174,382.343366 200.93622,374.207384 199.285841,366.229464 C194.068245,341.007649 175.632564,320.811229 152.564659,314.821563 L152.564659,314.821563 L151.825505,314.627106 C127.728883,308.204886 108.458147,294.934581 98.8699229,277.175316 C87.974431,256.994736 89.9450647,232.240918 106.390584,204.870977 L106.390584,204.870977 L106.866365,204.071992 C122.438362,177.684086 125.265729,149.197944 116.808932,124.670934 C109.148969,102.454959 92.9668555,86.6641232 75.9477062,84.5482744 Z M411.803289,-79.5496374 C445.209612,-134.47666 558.117505,-147.484477 750.580624,-118.791679 L750.580624,-118.791679 L750.969131,-118.733759 L752.18209,-114.225242 C755.896934,-100.371767 759.331967,-87.1333496 762.487031,-74.5094632 C767.425301,-74.0713514 772.442396,-73.6161891 777.53232,-73.1474741 L777.53232,-73.1474741 L778.048417,-73.0999484 L778.304277,-68.3124683 C779.808634,-39.7114148 780.731556,-13.7412173 781.07093,9.60195457 C791.936815,69.1593572 791.814849,104.687917 780.665833,116.313839 C779.096575,117.950223 777.42185,119.457406 775.656942,120.831742 C771.831285,143.730428 766.027922,157.814093 758.233812,163.110884 C742.314071,173.929764 720.895042,174.059617 703.588191,163.262654 C684.354919,151.263883 672.686082,127.861882 672.686082,96.3961302 L672.686082,96.3961302 L672.682939,95.4522701 C672.475561,64.4191543 662.008165,44.691894 642.307016,34.3583577 C639.833879,33.0611618 637.22517,31.9129902 634.477951,30.9090421 C621.509738,31.2310454 606.164954,34.5402225 587.1698,40.5436304 L587.1698,40.5436304 L585.371856,41.1163938 C579.487978,43.0053527 573.765543,44.9625293 565.625093,47.839006 L565.625093,47.839006 L552.04579,52.6527298 C549.412125,53.5795345 547.104482,54.3816048 544.956181,55.1147508 L544.956181,55.1147508 L542.667775,55.8898882 C516.862612,64.5617 471.66411,51.3479868 439.147835,25.6903073 C401.665525,-3.88593156 389.051575,-42.1410341 411.803289,-79.5496374 Z M637.735774,30.8926953 L637.927887,30.9731164 C639.627962,31.6873025 641.273209,32.461059 642.864412,33.2956679 C663.187337,43.955335 673.886082,64.3977385 673.886082,96.3961302 L673.886082,96.3961302 L673.88952,97.3258049 C674.116291,127.925073 685.548247,150.593976 704.223352,162.244532 C721.132349,172.793293 742.037922,172.666552 757.559319,162.118382 C764.958514,157.089971 770.536991,143.664402 774.282676,121.863583 C761.189993,131.308876 743.582535,133.756302 727.245905,127.823756 C705.938242,120.086009 689.658847,99.6214863 683.116749,68.8433362 L683.116749,68.8433362 L682.969853,68.1661279 C678.048004,45.9266165 665.772445,34.4081211 646.683955,31.5926574 C643.827606,31.171359 640.851338,30.9395274 637.735774,30.8926953 Z M761.520951,-73.3937569 C618.160762,-86.1728029 536.167018,-87.4991076 515.873535,-77.4256796 C501.219041,-70.1513746 500.218664,-44.1056999 512.158421,-17.742227 C524.937299,10.4740589 547.510799,28.6874088 571.599959,25.9108933 C597.660655,22.9071387 618.485414,23.8436914 634.675929,29.7035588 C638.973378,29.6088541 643.019118,29.8391282 646.859055,30.4055011 C666.639482,33.3230224 679.365433,45.4231015 684.290526,68.5938422 L684.290526,68.5938422 L684.487179,69.5024865 C691.070941,99.3859382 706.966211,119.182635 727.655506,126.695825 C744.034757,132.64385 761.705796,129.97336 774.570234,120.154244 C778.783719,94.4905381 780.555451,57.6693653 779.866415,9.72446861 C775.619869,-13.5252408 769.699932,-40.4599181 762.10371,-71.07244 Z M781.160813,16.999238 L781.172563,18.4365548 C781.532601,61.4067787 779.795239,94.941005 775.946103,119.065316 C777.291454,117.950084 778.578447,116.756782 779.799727,115.483261 C790.18425,104.654533 790.649351,71.7888881 781.160813,16.999238 Z M744.66793,-118.450971 C556.174614,-145.963036 445.544135,-132.717371 412.828555,-78.9260759 C390.435307,-42.106865 402.83938,-4.4882673 439.891175,24.748264 C472.118694,50.1780939 516.921244,63.2760512 542.285523,54.7523985 C544.149208,54.1261079 546.094943,53.459496 548.247704,52.710711 L548.247704,52.710711 L552.70024,51.149783 L565.226583,46.7071085 C571.894748,44.3508763 576.943999,42.6102004 581.789428,41.0182336 L581.789428,41.0182336 L585.005047,39.9738302 C603.419797,34.0619627 618.483798,30.5958001 631.327945,29.8402775 C615.776472,24.9509691 596.071737,24.2982219 571.737362,27.1030009 C547.035581,29.950127 524.03623,11.3931808 511.0653,-17.2471636 C498.893013,-44.1240739 499.919361,-70.8459377 515.339987,-78.500541 C535.913256,-88.712851 617.760115,-87.4037196 761.213496,-74.6260154 C757.781996,-88.3696708 754.013422,-102.842239 749.912863,-118.041957 L749.912863,-118.041957 L750.014591,-117.661202 Z M762.789205,-73.2805497 L763.213251,-71.5946897 C770.093798,-43.891813 775.605508,-19.1931888 779.746662,2.50686556 C779.314911,-20.1335009 778.359686,-45.1424334 776.878178,-72.5175782 L776.905301,-71.9985506 L772.845763,-72.3720967 C769.460845,-72.6810243 766.108657,-72.9838417 762.789205,-73.2805497 Z" id="Combined-Shape" fill="#7DC300" fill-rule="nonzero" opacity="0.200000003" mask="url(#mask-2)"></path>
                                    <circle id="Oval" fill="#DCF4B2" mask="url(#mask-2)" cx="596.477301" cy="222.326449" r="8"></circle>
                                </g>
                            </g>
                        </g>
                    </g>
                </g>
            </g>
        </g>
    </g>
</svg>