<svg width="757" height="310" viewBox="0 0 757 310" fill="none" xmlns="http://www.w3.org/2000/svg">
<g clip-path="url(#clip0_9703_20)">
<rect width="757" height="310" fill="#F4FFE2"/>
<path fill-rule="evenodd" clip-rule="evenodd" d="M957.769 -157.439C1012.98 -227.059 982.027 -363.114 924.365 -351.275C866.703 -339.435 665.185 -222.46 652.307 -115.699C645.71 -61.016 667.476 -26.7879 687.383 4.51907C706.343 34.3361 723.618 61.5021 713.103 101.164C675.165 244.268 876.008 264.192 903.182 228.818C941.788 178.564 955.66 115.508 898.812 69.2601C841.964 23.0121 902.557 -87.8189 957.769 -157.439ZM166.222 238.18C201.436 167.094 177.455 100.764 106.167 83.619C34.8781 66.475 -69 251.826 -69 251.826C-69 251.826 30.02 443.788 67.454 439.301C104.889 434.815 119.173 382.335 83.491 356.301C64.367 342.348 79.3931 329.84 102.878 310.292C123.21 293.368 149.883 271.166 166.222 238.18Z" fill="#EBFFC3"/>
<path d="M748.437 221.302C752.855 221.302 756.437 217.72 756.437 213.302C756.437 208.883 752.855 205.302 748.437 205.302C744.018 205.302 740.437 208.883 740.437 213.302C740.437 217.72 744.018 221.302 748.437 221.302Z" fill="#DCF4B2"/>
<path d="M548.437 10.302C544.019 10.302 540.437 6.72028 540.437 2.302C540.437 -2.11628 544.019 -5.698 548.437 -5.698C552.855 -5.698 556.437 -2.11628 556.437 2.302C556.437 6.72028 552.855 10.302 548.437 10.302Z" fill="#DCF4B2"/>
<path opacity="0.2" fill-rule="evenodd" clip-rule="evenodd" d="M357.111 -80.5749C379.863 -43.1663 367.249 -4.91098 329.766 24.665C297.25 50.323 252.052 63.536 226.246 54.865L223.958 54.089C221.81 53.356 219.502 52.554 216.868 51.627L203.289 46.814C195.149 43.937 189.426 41.98 183.542 40.091L181.744 39.518C162.748 33.515 147.403 30.205 134.435 29.884C131.688 30.888 129.08 32.036 126.607 33.333C106.906 43.667 96.439 63.394 96.231 94.427L96.228 95.371C96.228 126.837 84.559 150.239 65.326 162.237C48.019 173.034 26.6 172.905 10.68 162.086C2.88599 156.788 -2.91802 142.703 -6.74402 119.806C-8.50802 118.432 -10.183 116.925 -11.752 115.289C-22.901 103.663 -23.023 68.134 -12.157 8.57402C-11.817 -14.768 -10.894 -40.7376 -9.39001 -69.3377L-9.13403 -74.1252L-8.61804 -74.1728C-3.53004 -74.6413 1.48498 -75.0963 6.42798 -75.5378C9.58298 -88.1608 13.018 -101.398 16.732 -115.25L17.9449 -119.759L18.334 -119.817C210.797 -148.51 323.705 -135.502 357.111 -80.5749ZM253.574 -79.5258C233.001 -89.7383 151.152 -88.429 7.69598 -75.6508C11.104 -89.2806 14.838 -103.626 18.9 -118.686L24.246 -119.476C212.74 -146.988 323.37 -133.743 356.086 -79.9514C378.479 -43.1322 366.075 -5.51398 329.023 23.723C296.795 49.153 251.993 62.251 226.629 53.727C224.765 53.101 222.819 52.434 220.666 51.685L216.214 50.125L203.688 45.682C197.019 43.326 191.97 41.585 187.125 39.993L183.909 38.949C165.494 33.037 150.43 29.57 137.585 28.815C153.137 23.926 172.842 23.273 197.177 26.078C221.879 28.925 244.878 10.368 257.849 -18.272C270.021 -45.1494 268.995 -71.8712 253.574 -79.5258ZM41.259 125.671C24.88 131.618 7.20897 128.948 -5.65503 119.129C-9.86903 93.466 -11.641 56.645 -10.952 8.70102C-6.59903 -15.134 -0.487 -42.8436 7.388 -74.4186C150.751 -87.1981 232.747 -88.5245 253.041 -78.451C267.695 -71.1767 268.696 -45.131 256.756 -18.768C243.977 9.44902 221.403 27.662 197.314 24.886C171.253 21.882 150.428 22.818 134.238 28.679C129.94 28.584 125.895 28.814 122.055 29.38C102.275 32.298 89.549 44.398 84.624 67.569L84.427 68.477C77.843 98.361 61.948 118.157 41.259 125.671ZM-7.992 -73.0239C-9.457 -45.8534 -10.4031 -21.019 -10.8311 1.47603C-6.60605 -20.662 -0.955005 -45.9203 6.12 -74.3054C2.802 -74.0088 -0.548007 -73.7062 -3.93201 -73.3974L-7.992 -73.0239ZM-10.886 114.458C-9.66405 115.731 -8.37802 116.925 -7.03302 118.036C-10.924 93.642 -12.657 59.628 -12.246 15.967C-21.735 70.761 -21.27 103.629 -10.886 114.458ZM126.05 32.27C127.701 31.404 129.41 30.604 131.179 29.867C128.063 29.914 125.087 30.146 122.23 30.567C103.142 33.383 90.866 44.901 85.944 67.141L85.797 67.818C79.255 98.596 62.976 119.061 41.668 126.798C25.332 132.731 7.72498 130.284 -5.36902 120.837C-1.62302 142.638 3.95498 156.065 11.355 161.093C26.876 171.641 47.782 171.768 64.691 161.219C83.366 149.569 94.798 126.9 95.025 96.301L95.028 95.371C95.028 63.372 105.727 42.93 126.05 32.27ZM568.453 364.961C566.772 373.089 566.467 381.375 567.549 389.657C545.145 393.777 532.589 411.036 532.741 436.037C532.916 464.861 549.967 498.692 579.027 524.761C584.878 530.009 597.515 539.602 611.818 549.317L614.359 551.032C635.279 565.065 657.6 578.023 679.897 588.519C707.39 601.461 733.496 610.03 757.318 613.174C785.049 616.834 808.995 613.043 828.333 600.784C842.189 592 851.032 522.109 855.183 390.302L855.968 387.87C882.276 306.109 888.305 254.14 873.945 231.813L873.499 231.139C870.596 226.871 868.078 222.228 865.284 216.228C864.736 215.053 864.262 214.014 863.654 212.656L860.875 206.396C854.75 192.668 851.108 186.055 844.989 178.921L844.379 178.218C835.381 167.947 823.213 160.417 806.002 155.325C801.581 154.017 797.276 152.867 793.09 151.874C790.321 146.338 787.556 141.748 784.793 138.104C783.897 136.922 783.021 135.749 781.94 134.282L778.33 129.361C771.19 119.628 768.268 115.851 763.693 110.653L763.109 109.995C743.838 88.381 722.698 78.617 692.818 82.332C675.297 84.51 658.769 100.639 650.971 123.254C642.313 148.364 645.322 177.548 661.495 204.464L661.978 205.274C677.771 231.976 679.562 255.995 668.988 275.58C659.476 293.198 640.19 306.366 616.048 312.635L615.344 312.822C592.154 319.153 573.708 339.557 568.453 364.961ZM579.436 388.714C575.661 388.66 572.09 388.912 568.733 389.453C567.675 381.317 567.978 373.182 569.628 365.204C574.846 339.982 593.282 319.786 616.35 313.796L617.089 313.602C641.185 307.18 660.456 293.909 670.044 276.15C680.94 255.969 678.969 231.216 662.524 203.846L662.048 203.047C646.476 176.659 643.648 148.173 652.105 123.646C659.765 101.43 675.947 85.639 692.967 83.523C722.716 79.824 743.606 89.649 762.792 111.446C766.952 116.172 769.741 119.722 775.643 127.731L780.575 134.453C781.259 135.382 781.858 136.192 782.423 136.948L783.836 138.829C786.408 142.221 788.986 146.451 791.569 151.519C749.87 141.94 720.135 148.119 704.303 168.601C687.621 190.184 687.349 226.708 703.173 272.012C717.408 312.769 706.667 343.522 676.261 363.96C651.556 380.566 614.617 389.214 579.436 388.714ZM602.719 448.283C583.039 430.703 571.831 410.697 568.897 390.641C572.194 390.109 575.704 389.861 579.419 389.914C614.825 390.418 651.999 381.714 676.931 364.956C707.784 344.217 718.723 312.895 704.306 271.616C688.602 226.656 688.871 190.529 705.253 169.335C720.872 149.127 750.483 143.109 792.27 152.913C805.486 179.605 818.843 228.197 832.301 298.586C835.542 429.343 830.665 499.66 817.948 508.702C783.526 533.175 739.52 530.264 689.949 506.926C671.391 498.188 652.949 486.968 635.162 474.166C622.496 465.05 611.377 456.017 602.719 448.283ZM689.438 508.011C670.807 499.24 652.303 487.982 634.461 475.14C621.759 465.997 610.607 456.939 601.92 449.178C582.043 431.423 570.697 411.172 567.714 390.846C545.926 394.877 533.793 411.624 533.941 436.029C534.114 464.495 551.007 498.013 579.829 523.867L580.358 524.338C586.742 529.96 600.161 540.063 615.027 550.035C635.9 564.037 658.17 576.965 680.409 587.434C740.497 615.72 791.843 622.496 827.69 599.771C840.992 591.338 849.863 521.205 853.986 390.179L854.015 390.012C881.162 306.33 887.288 253.543 872.507 231.814C869.691 227.673 867.238 223.196 864.562 217.517L863.794 215.868C863.071 214.3 862.389 212.777 861.211 210.115L860.085 207.572C853.618 193.024 849.97 186.421 843.477 179.009C834.633 168.913 822.661 161.505 805.662 156.476C801.6 155.274 797.639 154.207 793.78 153.273C806.932 180.31 820.157 228.69 833.49 298.458C836.762 430.157 831.901 500.254 818.643 509.68C783.797 534.454 739.36 531.515 689.438 508.011Z" fill="#7DC300"/>
<path d="M172.437 229.302C168.019 229.302 164.437 225.72 164.437 221.302C164.437 216.884 168.019 213.302 172.437 213.302C176.855 213.302 180.437 216.884 180.437 221.302C180.437 225.72 176.855 229.302 172.437 229.302Z" fill="#DCF4B2"/>
</g>
<defs>
<clipPath id="clip0_9703_20">
<rect width="757" height="310" fill="white"/>
</clipPath>
</defs>
</svg>
