<svg viewBox="0 0 50 50" xmlns="http://www.w3.org/2000/svg" xmlns:xlink="http://www.w3.org/1999/xlink" width="50.000000" height="50.000000" fill="none" customFrame="#000000">
	<g id="Группа 8">
		<circle id="Oval" cx="25" cy="25" r="25" fill="rgb(138,206,23)" />
		<circle id="Oval" cx="25" cy="25" r="24.5" stroke="rgb(151,151,151)" stroke-opacity="0" stroke-width="1.000000" />
		<path id="Combined Shape" d="M31.3062 10L18.6941 10C16.6742 10 15.0308 11.6434 15.0308 13.6634L15.0308 36.863C15.0308 38.8829 16.6742 40.5263 18.6941 40.5263L31.3063 40.5263C33.3263 40.5263 34.9697 38.8829 34.9697 36.863L34.9697 13.6634C34.9696 11.6434 33.3262 10 31.3062 10ZM18.6941 11.9737C17.7624 11.9737 17.0044 12.7317 17.0044 13.6634L17.0044 31.8028L32.996 31.8028L32.996 13.6634C32.996 12.7317 32.238 11.9737 31.3063 11.9737L18.6941 11.9737ZM24.0427 15.9568L25.9576 15.9568C26.5026 15.9568 26.9444 15.515 26.9444 14.9699C26.9444 14.4249 26.5026 13.9831 25.9576 13.9831L24.0427 13.9831C23.4978 13.9831 23.0559 14.4249 23.0559 14.9699C23.0559 15.515 23.4977 15.9568 24.0427 15.9568ZM32.9959 36.863C32.9959 37.7946 32.2379 38.5526 31.3062 38.5526L18.6941 38.5526C17.7624 38.5526 17.0044 37.7946 17.0044 36.863L17.0044 33.7764L32.9959 33.7764L32.9959 36.863ZM24.0427 36.6514L25.9576 36.6514C26.5026 36.6514 26.9444 36.2096 26.9444 35.6645C26.9444 35.1195 26.5026 34.6777 25.9576 34.6777L24.0427 34.6777C23.4978 34.6777 23.0559 35.1195 23.0559 35.6645C23.0559 36.2096 23.4977 36.6514 24.0427 36.6514Z" fill="rgb(255,255,255)" fill-rule="evenodd" />
	</g>
</svg>
