<svg viewBox="0 0 50 50" xmlns="http://www.w3.org/2000/svg" xmlns:xlink="http://www.w3.org/1999/xlink" width="50.000000" height="50.000000" fill="none" customFrame="#000000">
	<g id="Группа 7">
		<circle id="Oval" cx="25" cy="25" r="25" fill="rgb(138,206,23)" />
		<circle id="Oval" cx="25" cy="25" r="24.5" stroke="rgb(151,151,151)" stroke-opacity="0" stroke-width="1.000000" />
		<g id="icon_location">
			<path id="Combined Shape" d="M14.6108 22.4308C14.6108 16.6792 19.2894 12 25.0404 12C30.7916 12 35.4706 16.6792 35.4708 22.4308C35.4708 26.5405 33.7501 30.6977 30.4946 34.453C28.0633 37.2577 25.6535 38.8467 25.5521 38.9131C25.3967 39.0147 25.2185 39.0654 25.0405 39.0654C24.8624 39.0654 24.6842 39.0147 24.5289 38.9131C24.4274 38.8467 22.0179 37.2577 19.5866 34.4529C16.3314 30.6977 14.6108 26.5405 14.6108 22.4308ZM25.0404 36.9824C23.1222 35.553 16.4808 30.0519 16.4808 22.4308C16.4808 17.7103 20.3205 13.8699 25.0404 13.8699C29.7606 13.8699 33.6007 17.7103 33.6007 22.4308C33.6007 30.0519 26.9587 35.553 25.0404 36.9824ZM25.041 18.2891C22.7584 18.2891 20.9014 20.1462 20.9014 22.429C20.9014 24.7112 22.7584 26.568 25.041 26.568C27.3236 26.568 29.1804 24.7112 29.1804 22.429C29.1804 20.1463 27.3234 18.2891 25.041 18.2891ZM25.041 24.698C23.7895 24.698 22.7714 23.6801 22.7714 22.429C22.7714 21.1773 23.7895 20.159 25.041 20.159C26.2924 20.159 27.3105 21.1773 27.3105 22.429C27.3105 23.6801 26.2924 24.698 25.041 24.698Z" fill="rgb(255,255,255)" fill-rule="evenodd" />
		</g>
	</g>
</svg>
