<svg viewBox="0 0 50 50" xmlns="http://www.w3.org/2000/svg" xmlns:xlink="http://www.w3.org/1999/xlink" width="50.000000" height="50.000000" fill="none" customFrame="#000000">
	<g id="Группа 6">
		<circle id="Oval" cx="25" cy="25" r="25" fill="rgb(138,206,23)" />
		<circle id="Oval" cx="25" cy="25" r="24.5" stroke="rgb(151,151,151)" stroke-opacity="0" stroke-width="1.000000" />
		<g id="icon_mail">
			<path id="Combined Shape" d="M34.1262 15.0674L15.8738 15.0674C14.2892 15.0674 13 16.3565 13 17.9412L13 31.0632C13 32.6479 14.2892 33.937 15.8738 33.937L34.1262 33.937C35.7108 33.937 37 32.6479 37 31.0632L37 17.9412C37 16.3566 35.7108 15.0674 34.1262 15.0674ZM33.7898 16.9832L16.355 16.9832L24.9999 24.0829L33.7898 16.9832ZM14.9159 18.2802L24.3667 26.0785C24.5477 26.2379 24.7739 26.3176 25 26.3176C25.2261 26.3176 25.4524 26.2379 25.6334 26.0783L35.0841 18.4005L35.0841 31.0632C35.0841 31.5914 34.6545 32.0212 34.1262 32.0212L15.8738 32.0212C15.3455 32.0212 14.9159 31.5914 14.9159 31.0632L14.9159 18.2802Z" fill="rgb(255,255,255)" fill-rule="evenodd" />
		</g>
	</g>
</svg>
