<svg viewBox="0 0 31 20" xmlns="http://www.w3.org/2000/svg" xmlns:xlink="http://www.w3.org/1999/xlink" width="31.000000" height="20.000000" fill="none" customFrame="#000000">
	<g id="Mastercard-logo">
		<rect id="rect19" width="8.288772" height="14.893475" x="11.397827" y="2.271484" fill="rgb(255,95,0)" />
		<path id="XMLID_330_" d="M11.9241 9.718C11.9241 6.69194 13.3451 4.00796 15.5291 2.27126C13.924 1.00821 11.8978 0.245117 9.68748 0.245117C4.45108 0.245117 0.2146 4.4816 0.2146 9.718C0.2146 14.9544 4.45108 19.1909 9.68748 19.1909C11.8978 19.1909 13.924 18.4278 15.5291 17.1647C13.3451 15.4544 11.9241 12.7441 11.9241 9.718Z" fill="rgb(235,0,27)" fill-rule="evenodd" />
		<path id="path22" d="M30.8699 9.718C30.8699 14.9544 26.6334 19.1909 21.397 19.1909C19.1867 19.1909 17.1605 18.4278 15.5554 17.1647C17.7658 15.428 19.1604 12.7441 19.1604 9.718C19.1604 6.69194 17.7394 4.00796 15.5554 2.27126C17.1605 1.00821 19.1867 0.245117 21.397 0.245117C26.6334 0.245117 30.8699 4.50791 30.8699 9.718Z" fill="rgb(247,158,27)" fill-rule="evenodd" />
	</g>
</svg>
