<?xml version="1.0" encoding="UTF-8"?>
<svg width="91px" height="90px" viewBox="0 0 91 90" version="1.1" xmlns="http://www.w3.org/2000/svg" xmlns:xlink="http://www.w3.org/1999/xlink">
    <title>Arrow_768</title>
    <g id="Page-1" stroke="none" stroke-width="1" fill="none" fill-rule="evenodd">
        <g id="Money_broz_768_home" transform="translate(-141.000000, -1262.000000)" fill="#CFEC9E" fill-rule="nonzero">
            <g id="2nd" transform="translate(-48.000000, 1085.000000)">
                <g id="2st" transform="translate(0.000000, 136.000000)">
                    <g id="Arrow_768" transform="translate(189.000000, 41.000000)">
                        <path d="M7,88 C7.55228475,88 8,88.4477153 8,89 C8,89.5522847 7.55228475,90 7,90 L7,90 L1,90 C0.44771525,90 -1.8189894e-12,89.5522847 -1.8189894e-12,89 C-1.8189894e-12,88.4477153 0.44771525,88 1,88 L1,88 Z M21,88 C21.5522847,88 22,88.4477153 22,89 C22,89.5522847 21.5522847,90 21,90 L21,90 L15,90 C14.4477153,90 14,89.5522847 14,89 C14,88.4477153 14.4477153,88 15,88 L15,88 Z M33.6256155,84.3039944 C34.0701601,83.9762772 34.6962019,84.0709845 35.0239191,84.515529 C35.3516363,84.9600736 35.256929,85.5861155 34.8123845,85.9138327 C33.1136275,87.1661523 31.2350876,88.1572154 29.2365299,88.8491518 C28.7146388,89.0298398 28.145086,88.7532401 27.9643979,88.231349 C27.7837099,87.709458 28.0603097,87.1399051 28.5822007,86.9592171 C30.3894124,86.3335281 32.0885643,85.4371049 33.6256155,84.3039944 Z M40.8447586,73.4286304 C40.9729866,72.8914377 41.5124166,72.5599062 42.0496093,72.6881341 C42.5868021,72.816362 42.9183336,73.3557921 42.7901057,73.8929848 C42.2980561,75.9543568 41.4967835,77.9200824 40.417944,79.7314063 C40.1353296,80.2059034 39.5215694,80.3614551 39.0470723,80.0788407 C38.5725752,79.7962263 38.4170235,79.1824661 38.6996379,78.7079689 C39.6754052,77.0696987 40.3998852,75.292365 40.8447586,73.4286304 Z M42.3633931,58.5816973 C42.9156779,58.5816973 43.3633931,59.0294125 43.3633931,59.5816973 L43.3633931,59.5816973 L43.3633931,65.5816973 C43.3633931,66.133982 42.9156779,66.5816973 42.3633931,66.5816973 C41.8111084,66.5816973 41.3633931,66.133982 41.3633931,65.5816973 L41.3633931,65.5816973 L41.3633931,59.5816973 C41.3633931,59.0294125 41.8111084,58.5816973 42.3633931,58.5816973 Z M42.3633931,44.5816973 C42.9156779,44.5816973 43.3633931,45.0294125 43.3633931,45.5816973 L43.3633931,45.5816973 L43.3633931,51.5816973 C43.3633931,52.133982 42.9156779,52.5816973 42.3633931,52.5816973 C41.8111084,52.5816973 41.3633931,52.133982 41.3633931,51.5816973 L41.3633931,51.5816973 L41.3633931,45.5816973 C41.3633931,45.0294125 41.8111084,44.5816973 42.3633931,44.5816973 Z M42.3633931,30.5816973 C42.9156779,30.5816973 43.3633931,31.0294125 43.3633931,31.5816973 L43.3633931,31.5816973 L43.3633931,37.5816973 C43.3633931,38.133982 42.9156779,38.5816973 42.3633931,38.5816973 C41.8111084,38.5816973 41.3633931,38.133982 41.3633931,37.5816973 L41.3633931,37.5816973 L41.3633931,31.5816973 C41.3633931,31.0294125 41.8111084,30.5816973 42.3633931,30.5816973 Z M42.7950187,17.3642835 C42.9959044,16.849829 43.5758022,16.5956313 44.0902566,16.7965169 C44.6047111,16.9974026 44.8589088,17.5773003 44.6580232,18.0917548 C43.9672717,19.8607223 43.5449075,21.7304089 43.4103533,23.6531124 C43.3717977,24.2040497 42.8939193,24.6194172 42.342982,24.5808616 C41.7920447,24.542306 41.3766773,24.0644276 41.4152328,23.5134903 C41.5639404,21.3885442 42.0310643,19.3207187 42.7950187,17.3642835 Z M52.4038767,6.50755376 C52.8899057,6.24526717 53.4965354,6.42664624 53.758822,6.91267525 C54.0211085,7.39870425 53.8397295,8.0053339 53.3537005,8.26762048 C51.6727891,9.17472784 50.1367081,10.3318347 48.7986293,11.6959628 C48.4118876,12.0902335 47.778752,12.0963369 47.3844814,11.7095952 C46.9902108,11.3228535 46.9841073,10.689718 47.370849,10.2954474 C48.8490191,8.78850082 50.5461384,7.51008618 52.4038767,6.50755376 Z M85.6804554,0.209704612 L85.7746627,0.292893219 L89.7746627,4.29289322 C90.1351467,4.65337718 90.1628762,5.22060824 89.8578513,5.61289944 L89.7746627,5.70710678 L85.7746627,9.70710678 C85.3841384,10.0976311 84.7509734,10.0976311 84.3604491,9.70710678 C83.9999652,9.34662282 83.9722356,8.77939176 84.2772605,8.38710056 L84.3604491,8.29289322 L87.653,5 L84.3604491,1.70710678 C83.9999652,1.34662282 83.9722356,0.779391764 84.2772605,0.387100557 L84.3604491,0.292893219 C84.7209331,-0.0675907428 85.2881642,-0.0953202783 85.6804554,0.209704612 Z M66.5633854,4 C67.1156702,4 67.5633916,4.44770906 67.5633916,5 C67.5633916,5.55227856 67.1156826,6 66.5633978,6 L66.5633978,6 L62.3322824,6.0000249 C61.7588971,6.00094277 61.188758,6.02723508 60.6229374,6.07858444 C60.072913,6.12850027 59.5865653,5.72308215 59.5366495,5.17305774 C59.4867337,4.62303332 59.8921518,4.13668567 60.4421762,4.08676985 C61.0670126,4.03006469 61.6963966,4.00104026 62.3306755,4.00002618 L62.3306755,4.00002618 Z M80.5633916,4 C81.1156764,4 81.5633916,4.44771525 81.5633916,5 C81.5633916,5.55228475 81.1156764,6 80.5633916,6 L80.5633916,6 L74.5633916,6 C74.0111069,6 73.5633916,5.55228475 73.5633916,5 C73.5633916,4.44771525 74.0111069,4 74.5633916,4 L74.5633916,4 Z" id="Combined-Shape"></path>
                    </g>
                </g>
            </g>
        </g>
    </g>
</svg>