<svg viewBox="0 0 89.9473 90.0039" xmlns="http://www.w3.org/2000/svg" xmlns:xlink="http://www.w3.org/1999/xlink" width="89.947266" height="90.003906" fill="none" customFrame="#000000">
	<g id="Group 14">
		<path id="Line 2" d="M0 83.5443L21.2011 83.5443C32.2468 83.5443 41.2011 74.59 41.2011 63.5443L41.2011 20C41.2011 8.95431 50.1554 0 61.2011 0L85.6625 0" fill="rgb(216,216,216)" fill-opacity="0" fill-rule="evenodd" transform="matrix(1,0,0,-1,1,84.5444)" />
		<path id="Line 2" d="M0 83.5443L21.2011 83.5443C32.2468 83.5443 41.2011 74.59 41.2011 63.5443L41.2011 20C41.2011 8.95431 50.1554 0 61.2011 0L85.6625 0" fill-rule="evenodd" stroke="rgb(207,236,158)" stroke-linecap="butt" stroke-dasharray="6 8 " stroke-width="2.000000" transform="matrix(1,0,0,-1,1,84.5444)" />
		<path id="Line" d="M2.52953e-13 2.21617e-13L4.45 3.89873L2.532e-13 7.79747" fill="rgb(216,216,216)" fill-opacity="0" fill-rule="evenodd" transform="matrix(1,0,0,-1,84.4375,89)" />
		<path id="Line" d="M2.52953e-13 2.21617e-13L4.45 3.89873L2.532e-13 7.79747" fill-rule="evenodd" stroke="rgb(207,236,158)" stroke-linecap="round" stroke-linejoin="round" stroke-width="2.000000" transform="matrix(1,0,0,-1,84.4375,89)" />
	</g>
</svg>
