<svg viewBox="0 0 90 90" xmlns="http://www.w3.org/2000/svg" xmlns:xlink="http://www.w3.org/1999/xlink" width="90.000000" height="90.000000" fill="none" customFrame="#000000">
	<g id="3">
		<circle id="Oval" cx="45" cy="45" r="45" fill="rgb(255,255,255)" />
		<circle id="Oval" cx="45" cy="45" r="45" stroke="rgb(151,151,151)" stroke-opacity="0" stroke-width="1.000000" />
		<g id="number" opacity="0">
			<circle id="Oval" cx="77" cy="13" r="15" fill="rgb(138,206,23)" />
			<circle id="Oval" cx="77" cy="13" r="14.5" stroke="rgb(151,151,151)" stroke-opacity="0" stroke-width="1.000000" />
			<path id="" d="M72.3579 24.2051C71.623 24.2051 70.9797 23.9902 70.428 23.5605C69.8762 23.1309 69.4478 22.4863 69.1426 21.627C68.8374 20.7651 68.6848 19.6946 68.6848 18.4153C68.6848 17.1384 68.8374 16.0789 69.1426 15.2366C69.4478 14.3943 69.8762 13.7656 70.428 13.3506C70.9797 12.9331 71.623 12.7244 72.3579 12.7244C73.0977 12.7244 73.7397 12.9343 74.2842 13.3542C74.8311 13.7742 75.2559 14.4041 75.5586 15.2439C75.8638 16.0813 76.0164 17.1384 76.0164 18.4153C76.0164 19.6946 75.8638 20.7651 75.5586 21.627C75.2559 22.4863 74.8311 23.1309 74.2842 23.5605C73.7397 23.9902 73.0977 24.2051 72.3579 24.2051ZM72.3579 22.656C72.707 22.656 73.0159 22.5217 73.2844 22.2532C73.5554 21.9822 73.7666 21.5378 73.918 20.9202C74.0693 20.3 74.145 19.4651 74.145 18.4153C74.145 17.3679 74.0693 16.5403 73.918 15.9324C73.7666 15.3245 73.5554 14.8923 73.2844 14.636C73.0159 14.3772 72.707 14.2478 72.3579 14.2478C72.0161 14.2478 71.7085 14.3772 71.4351 14.636C71.1616 14.8923 70.9468 15.3245 70.7905 15.9324C70.6343 16.5403 70.5562 17.3679 70.5562 18.4153C70.5562 19.4651 70.6343 20.3 70.7905 20.9202C70.9468 21.5378 71.1616 21.9822 71.4351 22.2532C71.7085 22.5217 72.0161 22.656 72.3579 22.656ZM80.7576 24.2051C80.1766 24.2051 79.659 24.1367 79.2049 24C78.7532 23.8633 78.3528 23.679 78.0037 23.447C77.657 23.2126 77.3567 22.9539 77.1028 22.6707L78.044 21.4146C78.376 21.7344 78.7483 22.0115 79.1609 22.2458C79.576 22.4778 80.0508 22.5938 80.5855 22.5938C80.9859 22.5938 81.335 22.5278 81.6329 22.396C81.9307 22.2617 82.1626 22.0688 82.3287 21.8174C82.4947 21.5635 82.5777 21.2583 82.5777 20.9019C82.5777 20.5161 82.4837 20.1816 82.2957 19.8984C82.1102 19.6128 81.7879 19.3943 81.3289 19.2429C80.8724 19.0891 80.2364 19.0122 79.4209 19.0122L79.4209 17.573C80.1265 17.573 80.6807 17.4961 81.0835 17.3423C81.4864 17.186 81.7745 16.9712 81.9478 16.6978C82.1236 16.4219 82.2115 16.1118 82.2115 15.7676C82.2115 15.3086 82.0711 14.9473 81.7903 14.6836C81.512 14.4175 81.1238 14.2844 80.6258 14.2844C80.2156 14.2844 79.836 14.376 79.4869 14.5591C79.1377 14.7397 78.8008 14.9827 78.4761 15.2878L77.4581 14.0647C77.9219 13.657 78.4175 13.3323 78.9449 13.0906C79.4747 12.8464 80.0618 12.7244 80.7063 12.7244C81.3948 12.7244 82.0015 12.8367 82.5264 13.0613C83.0513 13.2859 83.4603 13.6143 83.7532 14.0464C84.0486 14.4761 84.1963 15.0022 84.1963 15.6248C84.1963 16.2375 84.0303 16.7625 83.6983 17.1995C83.3663 17.634 82.9073 17.9624 82.3213 18.1846L82.3213 18.2542C82.7413 18.364 83.1209 18.5422 83.4603 18.7888C83.7996 19.0354 84.0682 19.3455 84.2659 19.719C84.4661 20.0901 84.5662 20.5222 84.5662 21.0154C84.5662 21.6819 84.3916 22.2532 84.0425 22.7292C83.6958 23.2053 83.2344 23.5703 82.6582 23.8242C82.0845 24.0781 81.451 24.2051 80.7576 24.2051Z" fill="rgb(255,255,255)" fill-rule="nonzero" />
			<path id="" d="M72.3579 24.7051Q71.0839 24.7051 70.1208 23.955Q69.178 23.2208 68.6714 21.7943Q68.1848 20.4201 68.1848 18.4153Q68.1848 16.4122 68.6725 15.0662Q69.1809 13.663 70.1274 12.951Q71.0878 12.2244 72.3579 12.2244Q73.638 12.2244 74.5895 12.9583Q75.5252 13.6768 76.029 15.0743Q76.5164 16.4117 76.5164 18.4153Q76.5164 20.4201 76.0299 21.7938Q75.5278 23.2193 74.5931 23.9537Q73.6411 24.7051 72.3579 24.7051ZM72.3579 23.7051Q73.294 23.7051 73.9753 23.1674Q74.6812 22.6127 75.0873 21.4601Q75.5164 20.2483 75.5164 18.4153Q75.5164 16.5883 75.0882 15.4135Q74.6838 14.2915 73.9788 13.7502Q73.2971 13.2244 72.3579 13.2244Q71.4235 13.2244 70.7285 13.7502Q70.0198 14.2833 69.6127 15.4069Q69.1848 16.5878 69.1848 18.4153Q69.1848 20.2483 69.6138 21.4596Q70.0227 22.6112 70.7352 23.1661Q71.4273 23.7051 72.3579 23.7051ZM72.3579 22.156Q72.6745 22.156 72.9309 21.8996Q73.2385 21.5919 73.4323 20.8012Q73.645 19.9298 73.645 18.4153Q73.645 16.9056 73.4328 16.0532Q73.2411 15.2832 72.9408 14.9992Q72.6799 14.7478 72.3579 14.7478Q72.0443 14.7478 71.7787 14.9991Q71.473 15.2858 71.2748 16.0568Q71.0562 16.9075 71.0562 18.4153Q71.0562 19.928 71.2754 20.798Q71.4756 21.5894 71.787 21.898Q72.0497 22.156 72.3579 22.156ZM72.3579 23.156Q71.6407 23.156 71.0831 22.6083Q70.5742 22.104 70.3057 21.0423Q70.0562 20.052 70.0562 18.4153Q70.0562 16.781 70.3063 15.8079Q70.5768 14.7552 71.0914 14.2728Q71.6461 13.7478 72.3579 13.7478Q73.0833 13.7478 73.628 14.2728Q74.1408 14.7578 74.4032 15.8116Q74.645 16.7829 74.645 18.4153Q74.645 20.0501 74.4036 21.0392Q74.1433 22.1014 73.638 22.6067Q73.0887 23.156 72.3579 23.156ZM80.7576 24.7051Q79.8124 24.7051 79.0607 24.4788Q78.312 24.2521 77.727 23.8635Q77.1526 23.4751 76.7305 23.0044L76.4568 22.6991L77.9832 20.6618L78.3909 21.0544Q78.8437 21.4906 79.4079 21.8111Q79.9137 22.0938 80.5855 22.0938Q81.0804 22.0938 81.4305 21.9388Q81.7421 21.7983 81.9114 21.5419Q82.0777 21.2876 82.0777 20.9019Q82.0777 20.4741 81.8791 20.175Q81.6938 19.8898 81.1723 19.7178Q80.5621 19.5122 79.4209 19.5122L78.9209 19.5122L78.9209 17.073L79.4209 17.073Q80.3871 17.073 80.9052 16.8752Q81.3536 16.7012 81.5255 16.43Q81.7115 16.1382 81.7115 15.7676Q81.7115 15.2955 81.448 15.0481Q81.1723 14.7844 80.6258 14.7844Q80.1337 14.7844 79.7191 15.0019Q79.2548 15.2421 78.8186 15.6522L78.4316 16.0159L76.7624 14.0105L77.128 13.6891Q77.8789 13.0292 78.7365 12.636Q79.6299 12.2244 80.7063 12.2244Q81.8415 12.2244 82.7231 12.6016Q83.6453 12.9962 84.1671 13.7658Q84.6963 14.5356 84.6963 15.6248Q84.6963 16.7123 84.0964 17.5019Q83.5109 18.2683 82.4986 18.6521L82.3213 18.1846L82.8213 18.1846L82.8213 18.2542L82.3213 18.2542L82.4479 17.7704Q83.1689 17.9591 83.7542 18.3843Q84.357 18.8223 84.7078 19.4851Q85.0662 20.1494 85.0662 21.0154Q85.0662 22.1788 84.4457 23.0249Q83.8474 23.8466 82.8599 24.2818Q81.9034 24.7051 80.7576 24.7051ZM80.7576 23.7051Q81.692 23.7051 82.4566 23.3667Q83.1976 23.0401 83.6393 22.4336Q84.0662 21.8514 84.0662 21.0154Q84.0662 20.4019 83.824 19.9529Q83.5816 19.4951 83.1663 19.1933Q82.7335 18.8788 82.1948 18.7379L81.8213 18.6402L81.8213 17.8394L82.1441 17.717Q82.8896 17.4344 83.3002 16.897Q83.6963 16.3755 83.6963 15.6248Q83.6963 14.8462 83.3394 14.327Q82.9822 13.8002 82.3297 13.521Q81.6366 13.2244 80.7063 13.2244Q79.8492 13.2244 79.1532 13.5451Q78.4289 13.8771 77.7881 14.4403L77.4581 14.0647L77.8424 13.7448L78.8604 14.968L78.4761 15.2878L78.1337 14.9235Q78.6715 14.418 79.2546 14.1163Q79.8874 13.7844 80.6258 13.7844Q81.5734 13.7844 82.1326 14.3191Q82.7115 14.8627 82.7115 15.7676Q82.7115 16.4297 82.3701 16.9655Q82.022 17.5146 81.2619 17.8094Q80.5715 18.073 79.4209 18.073L79.4209 17.573L79.9209 17.573L79.9209 19.0122L79.4209 19.0122L79.4209 18.5122Q80.7261 18.5122 81.4855 18.7681Q82.3409 19.0502 82.7123 19.6219Q83.0777 20.1724 83.0777 20.9019Q83.0777 21.5855 82.7459 22.0929Q82.4171 22.5909 81.8352 22.8532Q81.2918 23.0938 80.5855 23.0938Q79.6533 23.0938 78.914 22.6806Q78.2404 22.298 77.6971 21.7747L78.044 21.4146L78.4441 21.7144L77.503 22.9705L77.1028 22.6707L77.4751 22.3369Q77.8148 22.7158 78.2804 23.0305Q78.7427 23.3377 79.349 23.5212Q79.9597 23.7051 80.7576 23.7051Z" fill="rgb(151,151,151)" fill-rule="nonzero" />
		</g>
		<g id="icon_list_green">
			<path id="Line 10" d="M48.9941 27L48.9941 34.9807C48.9941 36.0852 49.8896 36.9807 50.9941 36.9807L59.4941 36.9807L48.9941 27Z" fill="rgb(138,206,23)" fill-opacity="0.400000006" fill-rule="evenodd" />
			<path id="Line 10" d="M48.9941 34.9807C48.9941 36.0852 49.8896 36.9807 50.9941 36.9807L59.4941 36.9807L48.9941 27L48.9941 34.9807Z" fill-rule="evenodd" stroke="rgb(138,206,23)" stroke-opacity="0" stroke-width="2.000000" />
			<path id="Combined Shape" d="M34 26L49.1716 26C49.9672 26 50.7303 26.3161 51.2929 26.8787L59.1213 34.7071C59.6839 35.2697 60 36.0328 60 36.8284L60 61C60 62.6569 58.6569 64 57 64L34 64C32.3431 64 31 62.6569 31 61L31 29C31 27.3431 32.3431 26 34 26ZM34 28L49.1716 28C49.4368 28 49.6911 28.1054 49.8787 28.2929L57.7071 36.1213C57.8946 36.3089 58 36.5632 58 36.8284L58 61C58 61.5523 57.5523 62 57 62L34 62C33.4477 62 33 61.5523 33 61L33 29C33 28.4477 33.4477 28 34 28ZM51.8437 41.4498C52.2075 41.0343 52.8392 40.9923 53.2548 41.356C53.6384 41.6918 53.7037 42.256 53.4253 42.6676L53.3486 42.7671L43.5486 53.9628L38.0156 48.4298C37.6251 48.0393 37.6251 47.4062 38.0156 47.0156C38.3761 46.6552 38.9434 46.6274 39.3356 46.9324L39.4298 47.0156L43.451 51.036L51.8437 41.4498Z" fill="rgb(138,206,23)" fill-rule="evenodd" />
		</g>
	</g>
</svg>
