<svg viewBox="0 0 90 90" xmlns="http://www.w3.org/2000/svg" xmlns:xlink="http://www.w3.org/1999/xlink" width="90.000000" height="90.000000" fill="none" customFrame="#000000">
	<g id="4">
		<circle id="Oval" cx="45" cy="45" r="45" fill="rgb(255,255,255)" />
		<circle id="Oval" cx="45" cy="45" r="45" stroke="rgb(151,151,151)" stroke-opacity="0" stroke-width="1.000000" />
		<g id="number" opacity="0">
			<circle id="Oval" cx="77" cy="13" r="15" fill="rgb(138,206,23)" />
			<circle id="Oval" cx="77" cy="13" r="14.5" stroke="rgb(151,151,151)" stroke-opacity="0" stroke-width="1.000000" />
			<path id="" d="M72.3579 24.2051C71.623 24.2051 70.9797 23.9902 70.428 23.5605C69.8762 23.1309 69.4478 22.4863 69.1426 21.627C68.8374 20.7651 68.6848 19.6946 68.6848 18.4153C68.6848 17.1384 68.8374 16.0789 69.1426 15.2366C69.4478 14.3943 69.8762 13.7656 70.428 13.3506C70.9797 12.9331 71.623 12.7244 72.3579 12.7244C73.0977 12.7244 73.7397 12.9343 74.2842 13.3542C74.8311 13.7742 75.2559 14.4041 75.5586 15.2439C75.8638 16.0813 76.0164 17.1384 76.0164 18.4153C76.0164 19.6946 75.8638 20.7651 75.5586 21.627C75.2559 22.4863 74.8311 23.1309 74.2842 23.5605C73.7397 23.9902 73.0977 24.2051 72.3579 24.2051ZM72.3579 22.656C72.707 22.656 73.0159 22.5217 73.2844 22.2532C73.5554 21.9822 73.7666 21.5378 73.918 20.9202C74.0693 20.3 74.145 19.4651 74.145 18.4153C74.145 17.3679 74.0693 16.5403 73.918 15.9324C73.7666 15.3245 73.5554 14.8923 73.2844 14.636C73.0159 14.3772 72.707 14.2478 72.3579 14.2478C72.0161 14.2478 71.7085 14.3772 71.4351 14.636C71.1616 14.8923 70.9468 15.3245 70.7905 15.9324C70.6343 16.5403 70.5562 17.3679 70.5562 18.4153C70.5562 19.4651 70.6343 20.3 70.7905 20.9202C70.9468 21.5378 71.1616 21.9822 71.4351 22.2532C71.7085 22.5217 72.0161 22.656 72.3579 22.656ZM81.7647 24L81.7647 16.9871C81.7647 16.6746 81.7757 16.3047 81.7977 15.8774C81.8196 15.4478 81.8367 15.0742 81.8489 14.7568L81.783 14.7568C81.6463 15.0474 81.5035 15.3403 81.3545 15.6357C81.2081 15.9312 81.0567 16.2253 80.9004 16.5183L78.9559 19.5615L84.9654 19.5615L84.9654 21.0776L77.0113 21.0776L77.0113 19.7446L81.2703 12.9185L83.6067 12.9185L83.6067 24L81.7647 24Z" fill="rgb(255,255,255)" fill-rule="nonzero" />
		</g>
		<g id="icon_money_green">
			<path id="Rectangle Copy" d="M39.8488 35.6849C38.5623 33.8789 36.7103 30.9707 37.1282 29.7143C37.7564 27.8259 40.0911 31.0903 42.4577 31.0903C43.8369 31.0903 46.0646 30.0552 49.2427 29.2013C50.503 28.8626 51.985 29.0937 53.001 29.3451C53.629 29.5004 53.8596 30.2253 53.4906 30.7567L50.1935 35.5046C49.4459 36.581 48.2185 37.223 46.908 37.223L42.9216 37.223C41.707 37.223 40.5535 36.6741 39.8488 35.6849Z" opacity="0.400000006" fill="rgb(138,206,23)" fill-rule="evenodd" />
			<path id="Rectangle Copy" d="M37.1282 29.7143C37.7564 27.8259 40.0911 31.0903 42.4577 31.0903C43.8369 31.0903 46.0646 30.0552 49.2427 29.2013C50.503 28.8626 51.985 29.0937 53.001 29.3451C53.629 29.5004 53.8596 30.2253 53.4906 30.7567L50.1935 35.5046C49.4459 36.581 48.2185 37.223 46.908 37.223L42.9216 37.223C41.707 37.223 40.5535 36.6741 39.8488 35.6849C38.5623 33.8789 36.7103 30.9707 37.1282 29.7143Z" opacity="0.400000006" fill-rule="evenodd" stroke="rgb(138,206,23)" stroke-opacity="0" stroke-width="2.000000" />
			<path id="Combined Shape" d="M48.0629 28.4943C48.3728 28.4034 48.678 28.3175 48.9831 28.2355C50.2468 27.896 51.6316 27.9257 53.1258 28.3108C54.1954 28.5864 54.839 29.677 54.5634 30.7466C54.5042 30.9762 54.4046 31.1935 54.2694 31.3883L51.5238 35.3419C50.7664 36.4326 50.8161 37.8914 51.6459 38.928L55.0935 43.2345C58.2695 47.2018 60 52.1323 60 57.2143L60 57.7143C60 62.1326 56.4183 65.7143 52 65.7143L38 65.7143C33.5817 65.7143 30 62.1326 30 57.7143L30 57.2143C30 52.1323 31.7305 47.2018 34.9065 43.2345L38.2789 39.0219C38.5364 38.7003 38.7187 38.3381 38.8252 37.9588C38.8066 37.8825 38.7967 37.8028 38.7967 37.7208C38.7967 37.5346 38.8476 37.3603 38.9363 37.211C38.9495 36.5902 38.7706 35.9648 38.3964 35.4291C36.5028 32.7183 35.718 30.7854 36.1792 29.3987C36.5373 28.3223 37.4269 27.9153 38.4369 28.2334C38.7345 28.3271 39.0355 28.4737 39.4123 28.6923L40.5493 29.3812C41.3866 29.8709 41.9547 30.0904 42.4576 30.0904C42.7932 30.0904 43.2569 30.0003 43.9472 29.8004L44.3893 29.6671C44.5732 29.6098 46.0486 29.1238 47.0176 28.815L48.0629 28.4943ZM40.6832 38.7208L45.7967 38.7208L45.9133 38.7141C46.4107 38.6563 46.7967 38.2337 46.7967 37.7208C46.7967 37.1685 46.349 36.7208 45.7967 36.7208L40.9188 36.7208C40.8459 35.8655 40.5526 35.0234 40.036 34.2838L39.8627 34.033C38.6222 32.2169 38.044 30.9125 38.0446 30.2601L38.046 30.227L38.0724 30.24C38.1356 30.271 38.2062 30.3081 38.2847 30.3518L38.7172 30.6078C38.9806 30.7682 39.2981 30.9637 39.2981 30.9637C40.5506 31.7224 41.4385 32.0904 42.4576 32.0904C43.0653 32.0904 43.737 31.9532 44.7111 31.6603L44.9844 31.5765C45.2352 31.4984 47.4242 30.7764 48.1759 30.5478C48.6293 30.4099 49.0665 30.2841 49.5021 30.167C50.3304 29.9445 51.2632 29.9426 52.3094 30.1718L52.6266 30.2475L49.881 34.2011C48.6187 36.0189 48.7015 38.4503 50.0846 40.1779L53.5321 44.4844C56.4242 48.097 58 52.5867 58 57.2143L58 57.7143C58 61.028 55.3137 63.7143 52 63.7143L38 63.7143C34.6863 63.7143 32 61.028 32 57.7143L32 57.2143C32 52.5867 33.5758 48.097 36.4679 44.4844L39.8402 40.2718C40.2191 39.7986 40.5004 39.2725 40.6832 38.7208ZM45.642 59.2078L45.642 57.8303C47.7786 57.5603 49.2213 56.2389 49.2213 54.1782C49.2213 51.5267 46.9914 50.9892 45.0913 50.5469C43.6751 50.2024 42.4416 49.9171 42.4416 48.8099C42.4416 47.8361 43.4438 47.297 44.6433 47.297C45.9098 47.297 46.8993 47.9801 46.8993 49.2367L48.8742 49.2367C48.8742 47.1584 47.6614 45.7719 45.5365 45.4875L45.5365 44.1969L43.8684 44.1969L43.8684 45.4799C41.7648 45.7283 40.4488 46.9577 40.4488 48.8974C40.4488 51.4665 42.609 51.968 44.4783 52.3925C45.9307 52.724 47.2002 53.0093 47.2002 54.2015C47.2002 55.2831 46.0898 55.9714 44.7978 55.9714C43.3875 55.9714 42.2643 55.2213 42.2643 53.8442L40.2483 53.8442C40.2483 56.0924 41.6562 57.5729 44.0124 57.8385L44.0124 59.2078L45.642 59.2078Z" fill="rgb(138,206,23)" fill-rule="evenodd" />
		</g>
	</g>
</svg>
