<svg viewBox="0 0 90 90" xmlns="http://www.w3.org/2000/svg" xmlns:xlink="http://www.w3.org/1999/xlink" width="90.000000" height="90.000000" fill="none" customFrame="#000000">
	<g id="Group 12">
		<circle id="Oval" cx="45" cy="45" r="45" fill="rgb(255,255,255)" />
		<circle id="Oval" cx="45" cy="45" r="45" stroke="rgb(151,151,151)" stroke-opacity="0" stroke-width="1.000000" />
		<g id="icon_form_green">
			<path id="Line 10" d="M47.9941 25L47.9941 32.9807C47.9941 34.0852 48.8896 34.9807 49.9941 34.9807L58.4941 34.9807L47.9941 25Z" fill="rgb(138,206,23)" fill-opacity="0.400000006" fill-rule="evenodd" />
			<path id="Line 10" d="M47.9941 32.9807C47.9941 34.0852 48.8896 34.9807 49.9941 34.9807L58.4941 34.9807L47.9941 25L47.9941 32.9807Z" fill-rule="evenodd" stroke="rgb(164,211,84)" stroke-opacity="0" stroke-width="2.000000" />
			<path id="Combined Shape" d="M33 24L48.1716 24C48.9672 24 49.7303 24.3161 50.2929 24.8787L58.1213 32.7071C58.6839 33.2697 59 34.0328 59 34.8284L59 59C59 60.6569 57.6569 62 56 62L33 62C31.3431 62 30 60.6569 30 59L30 27C30 25.3431 31.3431 24 33 24ZM33 26L48.1716 26C48.4368 26 48.6911 26.1054 48.8787 26.2929L56.7071 34.1213C56.8946 34.3089 57 34.5632 57 34.8284L57 59C57 59.5523 56.5523 60 56 60L33 60C32.4477 60 32 59.5523 32 59L32 27C32 26.4477 32.4477 26 33 26ZM46.5 40C46.5 39.4477 46.0523 39 45.5 39L37 39L36.8834 39.0067C36.386 39.0645 36 39.4872 36 40C36 40.5523 36.4477 41 37 41L45.5 41L45.6166 40.9933C46.114 40.9355 46.5 40.5128 46.5 40ZM52 44C52.5523 44 53 44.4477 53 45C53 45.5128 52.614 45.9355 52.1166 45.9933L52 46L37 46C36.4477 46 36 45.5523 36 45C36 44.4872 36.386 44.0645 36.8834 44.0067L37 44L52 44ZM53 50C53 49.4477 52.5523 49 52 49L37 49L36.8834 49.0067C36.386 49.0645 36 49.4872 36 50C36 50.5523 36.4477 51 37 51L52 51L52.1166 50.9933C52.614 50.9355 53 50.5128 53 50Z" fill="rgb(138,206,23)" fill-rule="evenodd" />
		</g>
	</g>
</svg>
