<svg viewBox="0 0 90 90" xmlns="http://www.w3.org/2000/svg" xmlns:xlink="http://www.w3.org/1999/xlink" width="90.000000" height="90.000000" fill="none" customFrame="#000000">
	<g id="2">
		<circle id="Oval" cx="45" cy="45" r="45" fill="rgb(255,255,255)" />
		<circle id="Oval" cx="45" cy="45" r="45" stroke="rgb(151,151,151)" stroke-opacity="0" stroke-width="1.000000" />
		<g id="number" opacity="0">
			<circle id="Oval" cx="77" cy="13" r="15" fill="rgb(138,206,23)" />
			<circle id="Oval" cx="77" cy="13" r="14.5" stroke="rgb(151,151,151)" stroke-opacity="0" stroke-width="1.000000" />
			<path id="" d="M72.3579 24.2051C71.623 24.2051 70.9797 23.9902 70.428 23.5605C69.8762 23.1309 69.4478 22.4863 69.1426 21.627C68.8374 20.7651 68.6848 19.6946 68.6848 18.4153C68.6848 17.1384 68.8374 16.0789 69.1426 15.2366C69.4478 14.3943 69.8762 13.7656 70.428 13.3506C70.9797 12.9331 71.623 12.7244 72.3579 12.7244C73.0977 12.7244 73.7397 12.9343 74.2842 13.3542C74.8311 13.7742 75.2559 14.4041 75.5586 15.2439C75.8638 16.0813 76.0164 17.1384 76.0164 18.4153C76.0164 19.6946 75.8638 20.7651 75.5586 21.627C75.2559 22.4863 74.8311 23.1309 74.2842 23.5605C73.7397 23.9902 73.0977 24.2051 72.3579 24.2051ZM72.3579 22.656C72.707 22.656 73.0159 22.5217 73.2844 22.2532C73.5554 21.9822 73.7666 21.5378 73.918 20.9202C74.0693 20.3 74.145 19.4651 74.145 18.4153C74.145 17.3679 74.0693 16.5403 73.918 15.9324C73.7666 15.3245 73.5554 14.8923 73.2844 14.636C73.0159 14.3772 72.707 14.2478 72.3579 14.2478C72.0161 14.2478 71.7085 14.3772 71.4351 14.636C71.1616 14.8923 70.9468 15.3245 70.7905 15.9324C70.6343 16.5403 70.5562 17.3679 70.5562 18.4153C70.5562 19.4651 70.6343 20.3 70.7905 20.9202C70.9468 21.5378 71.1616 21.9822 71.4351 22.2532C71.7085 22.5217 72.0161 22.656 72.3579 22.656ZM77.3482 24L77.3482 22.8611C78.398 21.926 79.2842 21.0654 80.0069 20.2793C80.7295 19.4932 81.2776 18.7607 81.6512 18.082C82.0247 17.4033 82.2115 16.771 82.2115 16.1851C82.2115 15.8018 82.1456 15.4673 82.0137 15.1816C81.8843 14.896 81.6878 14.675 81.4241 14.5188C81.1604 14.3625 80.8357 14.2844 80.45 14.2844C80.035 14.2844 79.6529 14.3992 79.3038 14.6287C78.9571 14.8582 78.6385 15.1377 78.3479 15.4673L77.2493 14.3906C77.7425 13.8535 78.2564 13.4421 78.7911 13.1565C79.3282 12.8684 79.9666 12.7244 80.7063 12.7244C81.3948 12.7244 81.9942 12.8635 82.5044 13.1418C83.0147 13.4202 83.4114 13.8108 83.6946 14.3137C83.9778 14.8142 84.1194 15.405 84.1194 16.0862C84.1194 16.7747 83.9473 17.4741 83.6031 18.1846C83.2588 18.895 82.7937 19.6079 82.2078 20.3232C81.6243 21.0361 80.9688 21.7466 80.2413 22.4546C80.5269 22.4204 80.8345 22.3911 81.1641 22.3667C81.4937 22.3423 81.7903 22.3301 82.054 22.3301L84.6395 22.3301L84.6395 24L77.3482 24Z" fill="rgb(255,255,255)" fill-rule="nonzero" />
		</g>
		<g id="icon_clock_green">
			<path id="Line 8 Copy" d="M57.5 40.5264C54.5 31.9966 43.5 31 43.5 31L43.5 37.5L43.5 45.5L49.4412 51.4412L54.5 56.5C54.5 56.5 60.5 49.0563 57.5 40.5264Z" fill="rgb(138,206,23)" fill-opacity="0.400000006" fill-rule="evenodd" />
			<path id="Line 8 Copy" d="M43.5 31L43.5 37.5L43.5 45.5L49.4412 51.4412L54.5 56.5C54.5 56.5 60.5 49.0563 57.5 40.5264C54.5 31.9966 43.5 31 43.5 31Z" fill-rule="evenodd" stroke="rgb(95,90,216)" stroke-opacity="0" stroke-width="2.000000" />
			<path id="Combined Shape" d="M40.0002 28C40.0002 25.7909 41.791 24 44.0002 24C46.2093 24 48.0002 25.7909 48.0002 28C48.0002 28.8696 47.7227 29.6743 47.2514 30.3306C54.529 31.8328 60.0002 38.2775 60.0002 46C60.0002 54.8366 52.8367 62 44.0002 62C35.1636 62 28.0002 54.8366 28.0002 46C28.0002 38.2775 33.4713 31.8328 40.7489 30.3306C40.2776 29.6743 40.0002 28.8696 40.0002 28ZM46.0002 28C46.0002 29.1046 45.1047 30 44.0002 30C42.8956 30 42.0002 29.1046 42.0002 28C42.0002 26.8954 42.8956 26 44.0002 26C45.1047 26 46.0002 26.8954 46.0002 28ZM33.5002 28.0858L34.9144 29.5L27.5002 36.9142L26.0859 35.5L33.5002 28.0858ZM54.5002 28.0858L53.0859 29.5L60.5002 36.9142L61.9144 35.5L54.5002 28.0858ZM30.0002 46C30.0002 38.268 36.2682 32 44.0002 32C51.7321 32 58.0002 38.268 58.0002 46C58.0002 53.732 51.7321 60 44.0002 60C36.2682 60 30.0002 53.732 30.0002 46ZM44.4934 37.3834C44.4357 36.886 44.013 36.5 43.5002 36.5C42.9479 36.5 42.5002 36.9477 42.5002 37.5L42.5002 45.9142L48.7342 52.1483L48.8285 52.2315C49.2207 52.5365 49.788 52.5088 50.1485 52.1483L50.2316 52.0541C50.5367 51.6618 50.5089 51.0946 50.1485 50.7341L44.5002 45.085L44.5002 37.5L44.4934 37.3834Z" fill="rgb(138,206,23)" fill-rule="evenodd" />
		</g>
	</g>
</svg>
