<?xml version="1.0" encoding="UTF-8"?>
<svg width="750px" height="700px" viewBox="0 0 750 700" version="1.1" xmlns="http://www.w3.org/2000/svg" xmlns:xlink="http://www.w3.org/1999/xlink">
    <title>bg_1st_768_short</title>
    <defs>
        <path d="M30.4435442,0 L716.996403,0 C733.564945,5.09121799e-16 746.996403,13.4314575 746.996403,30 C746.996403,30.9529273 746.950999,31.9053135 746.860347,32.8539191 L693.789314,588.199137 C692.457055,602.140153 681.656568,613.30468 667.767357,615.098187 L43.6193055,695.694133 C27.1871947,697.816004 12.1462209,686.215262 10.0243501,669.783151 C9.87864463,668.654784 9.79724622,667.519043 9.78054936,666.38143 L0.446774937,30.4402657 C0.203622908,13.8735075 13.4365203,0.246382767 30.0032785,0.00323073864 C30.1500239,0.00107694188 30.296783,-1.77366088e-14 30.4435442,0 Z" id="path-1"></path>
    </defs>
    <g id="Page-1" stroke="none" stroke-width="1" fill="none" fill-rule="evenodd">
        <g id="Change_subscription_768" transform="translate(-10.000000, -100.000000)">
            <g id="bg_1st_768_short" transform="translate(10.000000, 100.000000)">
                <mask id="mask-2" fill="white">
                    <use xlink:href="#path-1"></use>
                </mask>
                <use id="Rectangle" fill="#EBFFC6" opacity="0.5" xlink:href="#path-1"></use>
                <path d="M-206.475309,185.544072 C-265.168418,111.957278 -232.261743,-31.8512494 -170.965184,-19.3368595 C-109.668624,-6.8224695 104.552409,116.818207 118.242871,229.662826 C131.933333,342.507445 30.6999486,372.942255 53.614202,458.882789 C93.9439384,610.140568 -119.559543,631.200646 -148.447067,593.810661 C-189.486171,540.692523 -204.23324,474.043655 -143.801739,425.160441 C-83.370238,376.277228 -147.782201,259.130867 -206.475309,185.544072 Z M717.695409,129.407746 C768.216991,117.326836 830.28695,176.59059 903.905285,307.199007 C833.729788,442.465741 785.377328,508.518396 758.847905,505.356972 C719.053771,500.614836 703.869441,445.144976 741.80038,417.627499 C779.73132,390.110021 691.286894,367.912431 653.853928,292.775836 C616.420962,217.639241 641.913036,147.52911 717.695409,129.407746 Z" id="Combined-Shape" fill="#EBFFC6" mask="url(#mask-2)"></path>
                <path d="M28.7810081,493.872406 C49.2341189,471.101404 71.6824925,460.815565 103.388438,464.734846 C121.998239,467.035268 139.557725,484.072562 147.843015,507.965271 C157.043384,534.496836 153.845516,565.334097 136.658293,593.775495 L136.658293,593.775495 L136.144808,594.631893 C119.350287,622.86447 117.445713,648.263934 128.69184,668.975298 C138.808824,687.607185 159.320009,701.531367 184.993099,708.159505 L184.993099,708.159505 L185.741212,708.357612 C210.378336,715.045671 229.977204,736.601631 235.561191,763.440808 C237.397849,772.268622 237.689063,781.273796 236.421763,790.268611 C260.299231,794.578807 273.683381,812.824594 273.521684,839.281711 C273.335537,869.739165 255.214687,905.489426 224.329281,933.037176 C218.092026,938.600397 204.59566,948.784854 189.333662,959.084938 L189.333662,959.084938 L186.774589,960.801917 C164.537089,975.63394 140.810653,989.328967 117.109681,1000.4227 C87.8874743,1014.10076 60.1396503,1023.15654 34.8208643,1026.47877 C5.34983272,1030.34585 -20.0959875,1026.34108 -40.6439297,1013.389 C-55.3601174,1004.11288 -64.7630605,930.201188 -69.172695,790.849496 L-69.169559,790.934812 L-70.0061445,788.361569 C-97.9691163,701.950998 -104.377568,647.026922 -89.1206306,623.438889 L-89.1206306,623.438889 L-88.6468138,622.726595 C-85.5336995,618.175925 -82.8401956,613.227749 -79.8361975,606.802018 C-79.2664996,605.5834 -78.77234,604.506405 -78.1392069,603.100112 L-78.1392069,603.100112 L-75.5758406,597.35404 C-68.6348466,581.825636 -64.7120076,574.759601 -57.6945573,566.794343 C-48.1340437,555.942545 -35.2047524,547.987837 -16.9156334,542.607672 C-12.3526951,541.265379 -7.90681326,540.080749 -3.57985325,539.052383 C-0.498991158,532.828471 2.57854779,527.701037 5.65253128,523.669664 C6.60121599,522.425513 7.53074713,521.18736 8.67539132,519.644278 L8.67539132,519.644278 L13.5655367,513.017358 C19.9826136,504.339414 23.0609594,500.385351 27.2183887,495.636809 L27.2183887,495.636809 Z M-4.26257873,540.448036 L-4.4006895,540.483208 C-8.35923793,541.444066 -12.4184445,542.535566 -16.5769752,543.758893 C-34.6547522,549.076887 -47.3879214,556.910932 -56.794151,567.587608 C-63.6055224,575.318953 -67.4722891,582.216782 -74.1766387,597.165502 L-74.1766387,597.165502 L-76.2624776,601.846265 C-76.935428,603.353862 -77.4403239,604.473955 -77.9212563,605.522847 L-77.9212563,605.522847 L-79.1112109,608.080769 C-81.9968968,614.189522 -84.627263,618.976235 -87.6563941,623.404141 C-103.376682,646.383651 -96.8646787,702.183692 -68.0025881,790.644412 L-68.0025881,790.644412 L-67.9732953,790.811542 C-63.5900787,929.328385 -54.1603488,1003.45063 -40.0040413,1012.37384 C-19.7175373,1025.16113 5.45109948,1029.12227 34.6647432,1025.28897 C59.846714,1021.98469 87.4817339,1012.96573 116.600965,999.335865 C140.243134,988.269657 163.918382,974.604176 186.10873,959.803602 L186.10873,959.803602 L186.749552,959.375548 C202.748232,948.67289 217.079507,937.895521 223.530522,932.141641 L223.530522,932.141641 L224.446062,931.319223 C254.532985,904.100107 272.139605,869.069998 272.321706,839.274377 C272.47979,813.4085 259.515407,795.672889 236.244117,791.456291 C232.92585,812.71001 220.9002,833.858577 199.995756,852.425919 C190.761398,860.627882 178.907717,870.202243 165.406551,879.864502 C146.440866,893.437504 126.772744,905.3356 106.970024,914.605817 C53.9122345,939.443677 6.68896153,942.54898 -30.3395181,916.372663 C-44.1362548,906.61942 -49.3754166,835.260637 -46.3070883,701.420299 L-46.3070883,701.420299 L-46.1088535,693.147915 C-32.0588041,620.046651 -18.120871,569.161695 -4.26257873,540.448036 Z M90.2042904,557.363377 C73.5378425,535.923301 41.8992191,529.586185 -2.75545187,540.090015 C-16.6786976,568.472213 -30.7463369,619.567849 -44.9198241,693.276112 C-48.3650291,831.508118 -43.1819239,905.824493 -29.6468173,915.392783 C6.95885812,941.270209 53.7532879,938.193107 106.461257,913.519007 C126.191496,904.28272 145.798308,892.421713 164.708176,878.888657 C177.499857,869.734149 188.808199,860.65914 197.798696,852.765163 L197.798696,852.765163 L199.198864,851.528721 C219.903956,833.138444 231.790608,812.236468 235.062225,791.256295 C231.574877,790.699884 227.863944,790.441318 223.938385,790.496831 C186.308291,791.028971 146.798673,781.831198 120.303143,764.123121 C87.5186683,742.211877 75.8944632,709.119839 91.2163319,665.502695 C107.912979,617.971934 107.626628,579.775845 90.2042904,557.363377 Z M103.241222,465.925782 C71.6450079,462.020065 49.4359817,472.381352 29.0597058,495.362373 C24.6657746,500.31799 21.7161016,504.040319 15.5614139,512.338563 L15.5614139,512.338563 L9.63781185,520.361046 C8.98237459,521.244628 8.39712666,522.028698 7.83824535,522.771416 L7.83824535,522.771416 L6.60676837,524.397285 C3.72279147,528.179473 0.832138894,532.946715 -2.06483423,538.698107 C42.5065813,528.415266 74.2712211,534.911478 91.1517093,556.6269 C108.877051,579.42916 109.166396,618.024511 92.3485091,665.900407 C77.2108503,708.993156 88.6345225,741.514313 120.96994,763.125433 C147.239564,780.682527 186.515587,789.825919 223.921417,789.296951 C227.911607,789.240524 231.686946,789.50364 235.237821,790.068263 C236.48099,781.219283 236.191963,772.363842 234.386349,763.685238 C228.837321,737.014089 209.229655,715.656113 184.693126,709.321407 C158.720609,702.615964 137.928828,688.501297 127.637276,669.547919 C116.060699,648.227982 118.154635,622.075145 135.631256,593.154853 L135.631256,593.154853 L136.137176,592.310095 C152.695607,564.410434 155.702141,534.291686 146.709248,508.358428 C138.562437,484.86506 121.349737,468.164238 103.241222,465.925782 Z M414.445307,-75.7645682 C449.946419,-133.80335 569.958874,-147.550902 774.539056,-117.225407 L774.539056,-117.225407 L774.927352,-117.167849 L776.210665,-112.42494 C780.083123,-98.0659427 783.669533,-84.3320703 786.969744,-71.2228273 C792.463617,-70.7348146 798.047408,-70.2300043 803.71609,-69.709439 L803.71609,-69.709439 L804.232252,-69.6620389 L804.502761,-64.6140756 C806.180569,-32.8035967 807.178564,-4.0600104 807.494311,21.6210827 C818.461037,82.6555649 818.141418,119.148673 806.498338,131.220631 C805.011064,132.762689 803.43461,134.196115 801.780505,135.518175 C797.71424,160.139462 791.512425,175.265663 783.162459,180.924492 C766.23571,192.395866 743.461387,192.533554 725.058659,181.084717 C704.604593,168.359687 692.193962,143.538945 692.193962,110.161505 L692.193962,110.161505 L692.190616,109.159573 C691.969819,76.2170657 680.82508,55.2714396 659.84838,44.2993298 C657.442922,43.0411269 654.917074,41.9149911 652.268446,40.9170313 C638.228698,41.0856141 621.557438,44.6044438 600.782142,51.1352471 L600.782142,51.1352471 L598.934353,51.7205747 C592.816212,53.6731818 586.866291,55.6934919 578.513386,58.6250837 L578.513386,58.6250837 L567.160864,62.6300767 L560.097681,65.1006767 C558.796349,65.5511458 557.566381,65.973529 556.38393,66.3757649 L556.38393,66.3757649 L553.512996,67.3439753 C526.096122,76.5049167 478.061805,62.5421523 443.505209,35.4298439 C403.672513,4.17802936 390.268998,-36.2400733 414.445307,-75.7645682 Z M655.550345,40.9402833 L655.89817,41.0893303 C657.443418,41.7574893 658.945371,42.4727574 660.404564,43.2360053 C682.016343,54.5403001 693.393962,76.2196428 693.393962,110.161505 L693.393962,110.161505 L693.397622,111.148361 C693.639041,143.629729 705.809382,167.695947 725.692551,180.065806 C743.698048,191.267514 765.960271,191.132922 782.489246,179.931122 C790.438968,174.543541 796.41435,160.087405 800.402971,136.585144 C786.427083,146.970633 767.393127,149.746339 749.753392,143.377069 C727.1155,135.203087 709.817859,113.582416 702.865655,81.0611867 L702.865655,81.0611867 L702.709436,80.3451011 C697.475163,56.8287953 684.417307,44.6429081 664.115279,41.6620707 C661.369502,41.2589231 658.519595,41.0194931 655.550345,40.9402833 Z M786.006458,-70.1041744 C633.869367,-83.6092537 546.849117,-84.9964312 525.277538,-74.3182286 C509.660194,-66.5874468 508.594955,-38.9298416 521.306786,-10.9393317 C534.910479,19.0149914 558.943979,38.3526322 584.596904,35.404066 C612.743965,32.1688219 635.14843,33.2421502 652.4794,39.714002 C656.62517,39.6750244 660.549429,39.9256507 664.289599,40.4747998 C685.294777,43.5588767 698.807361,56.3369505 704.03914,80.8103256 L704.03914,80.8103256 L704.24826,81.771067 C711.249423,113.367913 728.154619,134.302458 750.16093,142.248391 C767.85007,148.635501 786.956103,145.627304 800.690646,134.850476 C805.010035,108.281677 806.881942,70.5665183 806.289189,21.7396055 C801.74089,-3.54695512 795.256363,-33.0700956 786.832775,-66.8234533 Z M807.568802,29.0389867 L807.579779,30.9461672 C807.839012,74.5810765 806.007029,108.834659 802.070768,133.730507 C803.308405,132.679111 804.498245,131.565803 805.634606,130.387584 C816.504689,119.117097 817.160383,85.2984192 807.568802,29.0389867 Z M768.265323,-116.932836 C567.874826,-146.01475 450.25781,-132.012706 415.468987,-75.1384049 C391.654519,-36.2054651 404.846095,3.57353828 444.24593,34.4857404 C478.514398,61.3719901 526.154551,75.2201777 553.132701,66.2058294 C554.995313,65.5834651 556.935115,64.9233977 559.0623,64.1889394 L559.0623,64.1889394 L563.842637,62.5246386 L580.276729,56.7360785 C586.830478,54.4461993 591.908445,52.7239327 596.948885,51.0974602 L596.948885,51.0974602 L599.501478,50.2810483 C619.276544,44.0168768 635.39321,40.4275394 649.111179,39.8070528 C632.821355,34.4745335 612.174174,33.6031571 586.670418,36.3794883 L586.670418,36.3794883 L584.73393,36.5962169 C558.46964,39.6150539 534.010213,19.9347068 520.214183,-10.4431282 C507.268993,-38.9474753 508.360342,-67.2829787 524.745177,-75.3936782 C546.595477,-86.2098511 633.469031,-84.8399882 785.696842,-71.33648 C782.099429,-85.6377193 778.156152,-100.685039 773.872013,-116.474779 L773.872013,-116.474779 L773.97356,-116.095416 Z M787.273781,-69.9915289 L787.93591,-67.3700936 C795.629646,-36.569522 801.713334,-9.28241856 806.184954,14.4978239 C805.765961,-10.5613168 804.725852,-38.4220045 803.062103,-69.0794395 L803.09,-68.561 L798.736233,-68.9597142 C794.875395,-69.3111015 791.054576,-69.6550395 787.273781,-69.9915289 Z" id="Combined-Shape" fill="#7DC300" fill-rule="nonzero" opacity="0.200000003" mask="url(#mask-2)"></path>
                <circle id="Oval" fill="#DCF4B2" mask="url(#mask-2)" cx="649.5" cy="177.5" r="8.5"></circle>
                <circle id="Oval-Copy-7" fill="#DCF4B2" mask="url(#mask-2)" cx="32.5" cy="561.5" r="8.5"></circle>
            </g>
        </g>
    </g>
</svg>