<?xml version="1.0" encoding="UTF-8"?>
<svg width="480px" height="818px" viewBox="0 0 480 818" version="1.1" xmlns="http://www.w3.org/2000/svg" xmlns:xlink="http://www.w3.org/1999/xlink">
    <title>3rd_768</title>
    <g id="Page-1" stroke="none" stroke-width="1" fill="none" fill-rule="evenodd" opacity="0.200000003">
        <g id="Money_broz_768_home" transform="translate(161.000000, -1772.000000)" fill="#7DC300" fill-rule="nonzero">
            <g id="3rd" transform="translate(-161.000000, 1573.000000)">
                <g id="3rd_768" transform="translate(0.000000, 199.000000)">
                    <path d="M161.887636,10.8679442 C185.686621,-1.07071334 211.266598,-3.14445138 239.086729,6.37456455 C280.051893,20.391323 304.511258,59.6340021 310.39926,113.110255 C315.725077,161.480613 304.831654,216.468194 282.303096,256.30076 L282.303096,256.30076 L281.668354,257.432957 C260.903925,294.800421 258.160606,332.637676 272.565651,364.139856 C286.754557,395.169365 316.586315,417.639016 355.728604,426.055976 C395.257595,434.55609 427.001881,464.08037 438.764339,502.337166 C439.7039,505.393041 440.507904,508.469393 441.176129,511.561288 C468.253992,516.288656 481.302233,536.45633 479.425261,568.064172 C477.274347,604.285134 455.434269,652.072125 420.922397,695.727221 C399.736424,722.525989 334.364614,764.686663 269.807453,790.391756 C187.607893,823.121625 115.499455,828.046334 68.3802907,796.230986 C50.7389201,784.319349 39.4200273,689.013153 34.1160571,509.465969 L34.118,509.549 L33.1040002,506.201813 C-0.533834332,394.85467 -8.24251123,324.087048 10.0765655,293.745492 L10.0765655,293.745492 L10.6454839,292.829296 C15.4929062,285.238995 18.7215208,278.483694 24.5031396,264.632137 L24.5031396,264.632137 L27.2485863,258.029564 C34.9688798,239.58375 40.3668344,229.486919 49.0280611,219.37442 C51.4303649,216.569588 54.0063222,213.91914 56.7761049,211.419827 C58.354974,154.547378 64.903657,118.052044 76.4392327,101.887988 C78.4432178,99.0799332 85.4529577,88.7801037 88.6169897,84.1309477 L88.6169897,84.1309477 L90.8671217,80.8413726 C97.0237278,71.9349865 102.407237,64.5896174 108.112975,57.4819079 C125.157166,36.2497423 142.547956,20.5696106 161.887636,10.8679442 Z M56.7305504,213.082603 L56.5991849,213.209819 C54.2374963,215.408985 52.0222023,217.723305 49.9394642,220.155026 C41.2525596,230.297505 35.8709754,240.455134 28.0090131,259.322667 L28.0090131,259.322667 L25.3243803,265.779146 C19.8822192,278.785949 16.6890509,285.48188 12.1331462,292.723788 L12.1331462,292.723788 L11.6568365,293.47518 C-7.30990561,323.174115 0.532817311,395.161213 35.2897618,509.273431 L35.2897618,509.273431 L35.3155339,509.430536 C40.5945592,688.133301 51.9425002,783.684086 69.0518018,795.236464 C115.759278,826.773837 187.496107,821.874507 269.363539,789.276884 C333.74248,763.642753 398.946394,721.590362 419.981034,694.983019 C454.352941,651.50497 476.092904,603.937033 478.227371,567.993037 C480.057026,537.182013 467.58337,517.592299 441.440267,512.823599 C449.145169,550.60758 436.622757,590.605513 403.470857,623.851554 C377.248888,650.147986 319.70466,679.643096 262.151547,693.932635 C190.96129,711.608063 126.766306,705.844238 81.2766956,671.484918 C64.3879292,658.728455 58.1612118,563.336151 62.3354243,384.500184 C57.4437775,314.926918 55.5726415,257.794499 56.7305504,213.082603 Z M225.903235,208.321706 C203.794224,177.855354 159.873128,171.008321 97.2742571,190.734238 C80.868459,195.90397 68.1054134,202.926036 57.9640368,211.966307 C56.7470873,256.789647 58.6010722,314.298301 63.5337836,384.472094 C59.3806196,562.518135 65.6234873,658.157859 81.9999531,670.52737 C127.15336,704.632748 190.990303,710.364426 261.862385,692.767995 C319.216993,678.527742 376.567327,649.132015 402.621127,623.00423 C435.624866,589.90677 447.989247,550.128155 440.171231,512.606602 C434.280888,511.65447 427.720852,511.433959 420.497187,511.982989 C373.29948,515.570218 316.077709,503.170449 276.388168,478.460964 C228.294009,448.519023 208.762721,403.999088 227.147987,347.935191 C247.262979,286.596682 246.91783,237.279946 225.903235,208.321706 Z M238.698245,7.5099413 C211.18846,-1.90288587 185.941733,0.143835992 162.425704,11.9405499 C143.26387,21.5530008 125.994301,37.1238347 109.048759,58.233112 C103.144623,65.5879692 97.5831326,73.203153 91.1415563,82.5566618 C90.4702259,83.5314691 79.9553483,99.0268471 77.4160037,102.585066 L77.4160037,102.585066 L76.8082911,103.462862 C65.8742856,119.735881 59.6021792,155.367834 58.0087521,210.328292 C68.1406074,201.530577 80.7993072,194.667592 96.9136002,189.589717 C159.951837,169.725349 204.406195,176.655514 226.874451,207.616908 C248.163284,236.95305 248.511037,286.641871 228.28824,348.309119 C210.086097,403.814603 229.372839,447.777116 277.022385,477.442254 C316.484854,502.010371 373.452685,514.355113 420.406244,510.78644 L420.406244,510.78644 L421.632956,510.700127 C428.283909,510.270043 434.376512,510.49787 439.903516,511.351196 C439.261779,508.449938 438.500019,505.560728 437.617329,502.689826 C425.981632,464.845313 394.577329,435.63724 355.476328,427.229158 L355.476328,427.229158 L354.29414,426.970083 C315.374908,418.280229 285.683418,395.712519 271.474335,364.638884 C256.757158,332.454107 259.734151,293.767184 281.258584,255.710003 L281.258584,255.710003 L281.927205,254.517164 C303.876962,215.005178 314.452053,160.883263 309.206468,113.241587 C303.364717,60.185385 279.162524,21.3553155 238.698245,7.5099413 Z" id="Combined-Shape"></path>
                </g>
            </g>
        </g>
    </g>
</svg>