<svg viewBox="0 0 70 70" xmlns="http://www.w3.org/2000/svg" xmlns:xlink="http://www.w3.org/1999/xlink" width="70.000000" height="70.000000" fill="none" customFrame="#000000">
	<g id="Группа 3">
		<circle id="Oval" cx="35" cy="35" r="35" fill="rgb(138,206,23)" />
		<circle id="Oval" cx="35" cy="35" r="34.5" stroke="rgb(151,151,151)" stroke-opacity="0" stroke-width="1.000000" />
		<g id="icon_money">
			<path id="Combined Shape" d="M38.0629 16.4943C38.3728 16.4034 38.678 16.3175 38.9831 16.2355C40.2468 15.896 41.6316 15.9257 43.1258 16.3108C44.1954 16.5864 44.839 17.677 44.5634 18.7466C44.5042 18.9762 44.4046 19.1935 44.2694 19.3883L41.5238 23.3419C40.7664 24.4326 40.8161 25.8914 41.6459 26.928L45.0935 31.2345C48.2695 35.2018 50 40.1323 50 45.2143L50 45.7143C50 50.1326 46.4183 53.7143 42 53.7143L28 53.7143C23.5817 53.7143 20 50.1326 20 45.7143L20 45.2143C20 40.1323 21.7305 35.2018 24.9065 31.2345L28.2789 27.0219C28.5364 26.7003 28.7187 26.3381 28.8252 25.9588C28.8066 25.8825 28.7967 25.8028 28.7967 25.7208C28.7967 25.5346 28.8476 25.3603 28.9363 25.211C28.9495 24.5902 28.7706 23.9648 28.3964 23.4291C26.5028 20.7183 25.718 18.7854 26.1792 17.3987C26.5373 16.3223 27.4269 15.9153 28.4369 16.2334C28.7345 16.3271 29.0355 16.4737 29.4123 16.6923L30.5493 17.3812C31.3866 17.8709 31.9547 18.0904 32.4576 18.0904C32.7932 18.0904 33.2569 18.0003 33.9472 17.8004L34.3893 17.6671C34.5732 17.6098 36.0486 17.1238 37.0176 16.815L38.0629 16.4943ZM30.6832 26.7208L35.7967 26.7208L35.9133 26.7141C36.4107 26.6563 36.7967 26.2337 36.7967 25.7208C36.7967 25.1685 36.349 24.7208 35.7967 24.7208L30.9188 24.7208C30.8459 23.8655 30.5526 23.0234 30.036 22.2838L29.8627 22.033C28.6222 20.2169 28.044 18.9125 28.0446 18.2601L28.046 18.227L28.0724 18.24C28.1356 18.271 28.2062 18.3081 28.2847 18.3518L28.7172 18.6078C28.9806 18.7682 29.2981 18.9637 29.2981 18.9637C30.5506 19.7224 31.4385 20.0904 32.4576 20.0904C33.0653 20.0904 33.737 19.9532 34.7111 19.6603L34.9844 19.5765C35.2352 19.4984 37.4242 18.7764 38.1759 18.5478C38.6293 18.4099 39.0665 18.2841 39.5021 18.167C40.3304 17.9445 41.2632 17.9426 42.3094 18.1718L42.6266 18.2475L39.881 22.2011C38.6187 24.0189 38.7015 26.4503 40.0846 28.1779L43.5321 32.4844C46.4242 36.097 48 40.5867 48 45.2143L48 45.7143C48 49.028 45.3137 51.7143 42 51.7143L28 51.7143C24.6863 51.7143 22 49.028 22 45.7143L22 45.2143C22 40.5867 23.5758 36.097 26.4679 32.4844L29.8402 28.2718C30.2191 27.7986 30.5004 27.2725 30.6832 26.7208ZM35.642 47.2078L35.642 45.8303C37.7786 45.5603 39.2213 44.2389 39.2213 42.1782C39.2213 39.5267 36.9914 38.9892 35.0913 38.5469C33.6751 38.2024 32.4416 37.9171 32.4416 36.8099C32.4416 35.8361 33.4438 35.297 34.6433 35.297C35.9098 35.297 36.8993 35.9801 36.8993 37.2367L38.8742 37.2367C38.8742 35.1584 37.6614 33.7719 35.5365 33.4875L35.5365 32.1969L33.8684 32.1969L33.8684 33.4799C31.7648 33.7283 30.4488 34.9577 30.4488 36.8974C30.4488 39.4665 32.609 39.968 34.4783 40.3925C35.9307 40.724 37.2002 41.0093 37.2002 42.2015C37.2002 43.2831 36.0898 43.9714 34.7978 43.9714C33.3875 43.9714 32.2643 43.2213 32.2643 41.8442L30.2483 41.8442C30.2483 44.0924 31.6562 45.5729 34.0124 45.8385L34.0124 47.2078L35.642 47.2078Z" fill="rgb(255,255,255)" fill-rule="evenodd" />
		</g>
	</g>
</svg>
