<svg viewBox="0 0 70 70" xmlns="http://www.w3.org/2000/svg" xmlns:xlink="http://www.w3.org/1999/xlink" width="70.000000" height="70.000000" fill="none" customFrame="#000000">
	<g id="Группа 4">
		<circle id="Oval" cx="35" cy="35" r="35" fill="rgb(138,206,23)" />
		<circle id="Oval" cx="35" cy="35" r="34.5" stroke="rgb(151,151,151)" stroke-opacity="0" stroke-width="1.000000" />
		<g id="icon_check">
			<path id="Combined Shape" d="M30.8807 13.8714L31.5823 13.1355C33.3818 11.248 36.3708 11.1767 38.2583 12.9762C38.3126 13.028 38.3657 13.0812 38.4176 13.1355L39.1192 13.8714C40.1054 14.9059 41.5686 15.3355 42.9576 14.9985L43.9457 14.7587C46.48 14.1437 49.033 15.6997 49.648 18.234C49.6657 18.307 49.6816 18.3804 49.6959 18.4541L49.8882 19.4526C50.1586 20.856 51.1573 22.0085 52.5079 22.4759L53.4688 22.8084C55.9333 23.6612 57.2398 26.3504 56.387 28.8149L56.3083 29.0259L55.9303 29.9699C55.3991 31.2967 55.6161 32.8062 56.4997 33.9296L57.1282 34.7288C58.7404 36.7786 58.3857 39.7473 56.3358 41.3595C56.2768 41.4059 56.2167 41.4509 56.1555 41.4945L55.3272 42.0842C54.1629 42.9132 53.5294 44.3004 53.6654 45.7231L53.7621 46.7353C54.0101 49.3313 52.1067 51.6369 49.5106 51.885C49.4359 51.8921 49.361 51.8975 49.2859 51.9011L48.2703 51.9494C46.8427 52.0173 45.5598 52.8418 44.9049 54.1122L44.4391 55.0159C43.2442 57.334 40.3964 58.2445 38.0784 57.0496C38.0116 57.0152 37.9457 56.9792 37.8807 56.9417L37.0001 56.4332C35.7624 55.7185 34.2374 55.7185 32.9997 56.4332L32.1192 56.9417C29.8608 58.2457 26.9728 57.4721 25.6688 55.2137C25.6312 55.1486 25.5952 55.0827 25.5608 55.0159L25.0949 54.1122C24.4401 52.8418 23.1572 52.0173 21.7296 51.9494L20.7139 51.9011C18.109 51.7771 16.0978 49.5649 16.2217 46.96L16.2378 46.7353L16.3345 45.7231C16.4704 44.3004 15.8369 42.9132 14.6727 42.0842L13.8444 41.4945C11.72 39.9819 11.224 37.0335 12.7366 34.9091L12.8716 34.7288L13.5002 33.9296C14.3838 32.8062 14.6008 31.2967 14.0695 29.9699L13.6916 29.0259C12.7222 26.6049 13.899 23.8565 16.32 22.8871C16.3897 22.8592 16.4601 22.8329 16.531 22.8084L17.4919 22.4759C18.8426 22.0085 19.8412 20.856 20.1116 19.4526L20.304 18.4541C20.7974 15.8934 23.2733 14.2174 25.8341 14.7108L26.0542 14.7587L27.0423 14.9985C28.4312 15.3355 29.8945 14.9059 30.8807 13.8714ZM36.8782 14.4238L36.97 14.5156L37.6716 15.2515C39.151 16.8032 41.3458 17.4476 43.4292 16.9421L44.4173 16.7023C45.8782 16.3478 47.3499 17.2447 47.7044 18.7056L47.732 18.8325L47.9243 19.831C48.33 21.9361 49.8279 23.6648 51.8539 24.3659L52.8148 24.6984C54.2354 25.19 54.9886 26.7402 54.497 28.1608L54.4516 28.2825L54.0736 29.2265C53.2767 31.2167 53.6023 33.4809 54.9276 35.166L55.5562 35.9652C56.4855 37.1468 56.281 38.8581 55.0994 39.7874L54.9955 39.8653L54.1672 40.455C52.4208 41.6985 51.4705 43.7792 51.6744 45.9133L51.7711 46.9255C51.9141 48.422 50.8169 49.7511 49.3204 49.894L49.1909 49.9033L48.1752 49.9516C46.0338 50.0535 44.1095 51.2902 43.1272 53.1958L42.6613 54.0996C41.9726 55.4358 40.331 55.9607 38.9948 55.2719L38.8808 55.2097L38.0002 54.7012C36.1437 53.6292 33.8562 53.6292 31.9996 54.7012L31.1191 55.2097C29.8172 55.9614 28.1525 55.5154 27.4008 54.2136L27.3385 54.0996L26.8727 53.1958C25.8904 51.2902 23.9661 50.0535 21.8246 49.9516L20.809 49.9033C19.3074 49.8319 18.148 48.5567 18.2195 47.0551L18.2287 46.9255L18.3254 45.9133C18.5293 43.7792 17.5791 41.6985 15.8327 40.455L15.0044 39.8653C13.7798 38.9933 13.4939 37.2938 14.3658 36.0692L14.4437 35.9652L15.0723 35.166C16.3976 33.4809 16.7231 31.2167 15.9262 29.2265L15.5483 28.2825C14.9895 26.8869 15.6678 25.3026 17.0634 24.7438L17.1851 24.6984L18.146 24.3659C20.1719 23.6648 21.6699 21.9361 22.0755 19.831L22.2679 18.8325C22.5523 17.3564 23.9795 16.3903 25.4557 16.6747L25.5826 16.7023L26.5707 16.9421C28.6541 17.4476 30.8489 16.8032 32.3282 15.2515L33.0299 14.5156C34.0672 13.4275 35.7901 13.3864 36.8782 14.4238ZM32.2558 18.4291L31.8292 18.8766C31.0895 19.6524 29.9921 19.9746 28.9504 19.7219L28.3496 19.5761C28.291 19.5619 28.232 19.549 28.1728 19.5376C26.1167 19.1415 24.1287 20.4871 23.7325 22.5433L23.6155 23.1504C23.4127 24.2029 22.6637 25.0673 21.6508 25.4178L21.0665 25.62C21.0095 25.6397 20.953 25.6608 20.897 25.6832C18.9531 26.4616 18.0082 28.6685 18.7866 30.6124L19.0164 31.1863C19.4148 32.1814 19.2521 33.3135 18.5894 34.1561L18.2072 34.642C18.1699 34.6894 18.1338 34.7377 18.0988 34.7868C16.8843 36.4926 17.2825 38.86 18.9883 40.0745L19.4919 40.4331C20.3651 41.0548 20.8402 42.0952 20.7383 43.1623L20.6795 43.7777C20.6737 43.8377 20.6694 43.8979 20.6666 43.9581C20.567 46.0497 22.182 47.826 24.2736 47.9255L24.8911 47.9549C25.9618 48.0058 26.924 48.6242 27.4151 49.577L27.6984 50.1265C27.726 50.1801 27.7549 50.233 27.7851 50.2853C28.8322 52.0986 31.151 52.7198 32.9644 51.6727L33.4998 51.3636C34.4281 50.8276 35.5718 50.8276 36.5001 51.3636L37.0355 51.6727C37.0877 51.7029 37.1406 51.7318 37.1942 51.7594C39.0555 52.7188 41.3421 51.9877 42.3015 50.1265L42.5848 49.577C43.0759 48.6242 44.0381 48.0058 45.1088 47.9549L45.7263 47.9255C45.7866 47.9226 45.8467 47.9183 45.9067 47.9126C47.9912 47.7134 49.5196 45.8622 49.3204 43.7777L49.2616 43.1623C49.1597 42.0952 49.6348 41.0548 50.508 40.4331L51.0116 40.0745C51.0607 40.0395 51.109 40.0034 51.1564 39.9661C52.8023 38.6716 53.0872 36.2879 51.7927 34.642L51.4105 34.1561C50.7478 33.3135 50.585 32.1814 50.9835 31.1863L51.2133 30.6124C51.2357 30.5564 51.2568 30.4999 51.2765 30.4429C51.9613 28.4641 50.9122 26.3048 48.9334 25.62L48.3491 25.4178C47.3361 25.0673 46.5871 24.2029 46.3843 23.1504L46.2674 22.5433C46.256 22.4841 46.2431 22.4251 46.2289 22.3665C45.7351 20.3316 43.6852 19.0823 41.6503 19.5761L41.0495 19.7219C40.0078 19.9746 38.9104 19.6524 38.1707 18.8766L37.7441 18.4291C37.7025 18.3855 37.6598 18.3428 37.6162 18.3012C36.1006 16.8563 33.7007 16.9136 32.2558 18.4291ZM36.7232 20.2567L36.2361 19.7488C35.52 19.066 34.386 19.0931 33.7033 19.8092L33.2767 20.2567C32.0439 21.5497 30.2149 22.0868 28.4788 21.6655L27.878 21.5197L27.7944 21.5015C26.8229 21.3143 25.8836 21.9502 25.6964 22.9217L25.5794 23.5288C25.2414 25.283 23.9931 26.7237 22.3048 27.3079L21.6405 27.5399C20.722 27.9077 20.2755 28.9504 20.6433 29.869L20.8731 30.4429C21.5372 32.1014 21.2659 33.9882 20.1614 35.3925L19.7792 35.8784L19.728 35.9469C19.1542 36.7528 19.3423 37.8714 20.1483 38.4453L20.6519 38.8039C22.1072 39.8401 22.8991 41.5741 22.7292 43.3525L22.6668 44.0105L22.6632 44.2002C22.6941 45.1234 23.4297 45.8831 24.3686 45.9278L24.9861 45.9571C26.7707 46.042 28.3743 47.0726 29.1928 48.6606L29.4761 49.2101L29.5171 49.2852C30.0118 50.142 31.1075 50.4355 31.9643 49.9407L32.4997 49.6316C34.0468 48.7382 35.9531 48.7382 37.5002 49.6316L38.0356 49.9407L38.1106 49.9817C38.99 50.435 40.0705 50.0896 40.5238 49.2101L40.807 48.6606C41.6256 47.0726 43.2292 46.042 45.0137 45.9571L45.6313 45.9278L45.7165 45.9217C46.7014 45.8276 47.4236 44.9528 47.3295 43.9679L47.2707 43.3525C47.1007 41.5741 47.8926 39.8401 49.348 38.8039L49.92 38.3941C50.6977 37.7824 50.8323 36.6561 50.2206 35.8784L49.8384 35.3925C48.734 33.9882 48.4627 32.1014 49.1268 30.4429L49.372 29.8291L49.4308 29.6406C49.6566 28.7484 49.1651 27.8166 48.2793 27.5101L47.6951 27.3079C46.0068 26.7237 44.7585 25.283 44.4205 23.5288L44.3035 22.9217L44.2853 22.8382C44.052 21.8767 43.0834 21.2864 42.1219 21.5197L41.5211 21.6655C39.785 22.0868 37.9559 21.5497 36.7232 20.2567ZM41.519 30.2364C41.0973 29.8798 40.4664 29.9326 40.1097 30.3543L33.7149 37.915L30.707 34.9072L30.6128 34.824C30.2205 34.5189 29.6533 34.5467 29.2928 34.9072C28.9023 35.2977 28.9023 35.9308 29.2928 36.3214L33.8388 40.8673L41.6369 31.6457L41.712 31.5449C41.9832 31.1285 41.9083 30.5656 41.519 30.2364Z" fill="rgb(255,255,255)" fill-rule="evenodd" />
		</g>
	</g>
</svg>
